<svg id="svg" version="1.1" xmlns="http://www.w3.org/2000/svg" xmlns:xlink="http://www.w3.org/1999/xlink" width="400" height="400" viewBox="0, 0, 400,400"><g id="svgg"><path id="path0" d="M80.800 69.252 C 56.270 92.360,31.970 115.267,26.800 120.158 L 17.400 129.050 17.600 200.477 L 17.800 271.904 53.388 305.252 C 72.962 323.593,97.172 346.290,107.188 355.688 L 125.400 372.776 201.438 372.788 L 277.476 372.800 329.917 322.300 L 382.358 271.800 382.379 200.328 L 382.400 128.857 329.900 78.033 L 277.400 27.210 201.400 27.225 L 125.400 27.239 80.800 69.252 M322.745 84.850 L 372.400 132.899 372.366 200.350 L 372.331 267.800 322.781 315.500 L 273.231 363.200 201.440 363.200 L 129.650 363.200 78.625 315.387 L 27.600 267.573 27.600 200.263 L 27.600 132.953 78.692 84.877 L 129.783 36.800 201.436 36.800 L 273.089 36.800 322.745 84.850 M110.096 119.765 L 107.303 122.400 87.251 122.400 C 76.223 122.400,67.200 122.513,67.200 122.651 C 67.200 122.788,68.104 124.376,69.210 126.178 L 71.220 129.456 71.110 159.828 L 71.000 190.200 69.115 193.362 C 68.078 195.102,67.324 196.677,67.439 196.862 C 67.711 197.303,89.488 197.304,89.760 196.864 C 89.875 196.679,89.120 195.194,88.084 193.564 L 86.200 190.600 86.078 178.900 L 85.956 167.200 91.890 167.200 L 97.825 167.200 100.200 169.600 C 103.668 173.105,102.913 174.350,108.974 155.146 C 111.932 145.773,111.935 145.791,107.864 149.600 L 105.298 152.000 95.649 152.000 L 86.000 152.000 86.000 144.600 L 86.000 137.200 100.386 137.200 L 114.771 137.200 117.886 140.005 C 119.599 141.548,121.048 142.583,121.106 142.305 C 121.237 141.681,113.719 117.959,113.237 117.477 C 113.040 117.280,111.678 118.273,110.096 119.765 M152.200 123.062 C 126.934 128.450,114.756 158.154,128.891 179.916 C 145.443 205.398,183.814 201.438,194.806 173.114 C 205.430 145.737,180.915 116.939,152.200 123.062 M232.000 123.001 C 206.374 128.182,193.965 157.968,208.272 179.956 C 224.211 204.453,259.999 202.157,272.823 175.815 C 286.220 148.299,261.980 116.939,232.000 123.001 M280.400 122.710 C 280.400 122.881,281.210 124.322,282.200 125.913 L 284.000 128.806 284.000 159.648 L 284.000 190.491 282.200 193.379 C 281.210 194.968,280.400 196.477,280.400 196.734 C 280.400 197.331,312.938 197.384,318.075 196.795 C 331.229 195.288,342.173 185.263,344.635 172.465 C 345.467 168.141,345.419 150.627,344.564 146.486 C 342.174 134.916,332.420 125.172,321.049 122.997 C 317.653 122.347,280.400 122.084,280.400 122.710 M320.487 139.272 C 327.512 142.564,329.584 147.241,329.584 159.800 C 329.584 170.014,328.715 173.222,324.920 177.017 C 321.284 180.653,320.038 180.980,309.300 181.127 L 300.000 181.253 300.000 159.594 L 300.000 137.935 309.100 138.067 C 318.000 138.197,318.250 138.224,320.487 139.272 M165.548 138.981 C 184.690 144.076,186.834 170.640,168.792 179.173 C 154.997 185.697,138.800 175.126,138.800 159.600 C 138.800 145.665,152.110 135.405,165.548 138.981 M244.928 138.998 C 262.269 143.515,266.260 167.394,251.332 177.311 C 236.786 186.974,218.114 176.869,218.235 159.400 C 218.333 145.336,231.277 135.442,244.928 138.998 M140.919 218.728 C 140.495 218.991,133.200 241.626,133.200 242.678 C 133.200 243.662,133.988 243.196,137.056 240.400 L 140.128 237.600 148.664 237.600 L 157.200 237.600 157.200 264.246 L 157.200 290.891 155.400 293.779 C 154.410 295.368,153.600 296.877,153.600 297.134 C 153.600 297.726,175.824 297.808,176.190 297.217 C 176.320 297.006,175.521 295.388,174.413 293.621 L 172.400 290.409 172.400 264.004 L 172.400 237.600 181.046 237.600 L 189.692 237.600 192.911 240.400 C 197.386 244.293,197.466 244.240,195.624 238.601 C 194.977 236.620,193.258 231.265,191.804 226.700 C 188.828 217.357,189.012 217.550,186.000 220.600 L 183.827 222.800 164.997 222.800 L 146.167 222.800 144.383 220.969 C 142.329 218.861,141.534 218.346,140.919 218.728 M105.400 223.393 C 91.606 226.435,84.327 237.513,87.262 251.000 C 88.773 257.945,93.088 261.669,105.117 266.408 C 114.617 270.152,117.184 273.341,114.388 277.927 C 110.247 284.719,98.145 281.451,89.292 271.151 C 87.630 269.217,86.119 267.727,85.935 267.840 C 85.428 268.154,85.509 295.896,86.017 296.211 C 86.247 296.353,87.071 295.958,87.849 295.334 C 88.628 294.710,89.665 293.876,90.154 293.480 C 91.024 292.777,91.112 292.796,94.131 294.339 C 111.874 303.413,132.265 291.458,131.083 272.674 C 130.423 262.171,125.860 257.362,111.207 251.725 C 102.425 248.347,100.216 245.045,104.124 241.138 C 108.618 236.643,115.208 237.967,123.352 245.000 C 128.720 249.636,128.400 250.235,128.400 235.551 C 128.400 222.380,128.473 222.701,125.950 224.780 L 124.519 225.960 121.532 224.801 C 116.416 222.814,110.403 222.290,105.400 223.393 M228.139 223.398 C 193.966 231.210,188.441 278.015,219.854 293.581 C 251.366 309.195,285.119 275.032,269.432 243.400 C 261.995 228.401,244.121 219.744,228.139 223.398 M277.200 223.196 C 277.200 223.414,278.010 224.855,279.000 226.400 L 280.800 229.208 280.800 260.001 L 280.800 290.794 279.000 293.687 C 278.010 295.278,277.200 296.809,277.200 297.090 C 277.200 297.670,299.390 297.863,299.747 297.286 C 299.854 297.113,299.054 295.541,297.970 293.792 L 296.000 290.613 296.000 284.358 L 296.000 278.103 304.300 275.011 C 325.640 267.062,330.800 261.849,330.800 248.242 C 330.800 235.435,324.180 226.531,312.307 223.370 C 309.733 222.685,277.200 222.523,277.200 223.196 M311.200 239.042 C 316.434 241.998,317.868 250.375,313.758 253.983 C 311.654 255.830,305.701 258.585,298.100 261.227 L 296.000 261.957 296.000 249.744 L 296.000 237.531 302.500 237.666 C 308.922 237.798,309.027 237.815,311.200 239.042 M241.988 239.459 C 259.340 244.332,262.895 267.919,247.785 277.927 C 238.374 284.161,225.529 281.771,218.959 272.564 C 207.130 255.987,222.445 233.971,241.988 239.459 " stroke="none" fill="#fbf9fa" fill-rule="evenodd"></path><path id="path1" d="M61.088 68.064 L 2.800 122.929 2.828 200.364 L 2.856 277.800 15.328 289.436 C 26.000 299.392,61.204 332.357,105.000 373.402 C 111.380 379.381,117.254 384.842,118.053 385.537 L 119.506 386.800 201.608 386.800 L 283.711 386.800 285.555 385.123 C 287.139 383.683,295.000 376.131,324.400 347.803 C 327.370 344.941,332.320 340.166,335.400 337.191 C 342.357 330.471,347.830 325.198,362.600 310.987 C 368.980 304.849,376.450 297.647,379.200 294.983 C 381.950 292.320,387.114 287.364,390.675 283.970 L 397.149 277.800 397.175 200.376 L 397.200 122.952 393.100 118.968 C 384.412 110.527,364.276 91.031,324.812 52.853 L 283.825 13.200 201.600 13.200 L 119.375 13.200 61.088 68.064 M330.300 78.127 L 382.800 129.000 382.800 200.261 L 382.800 271.522 330.300 322.148 L 277.800 372.775 201.505 372.788 L 125.209 372.800 71.205 322.188 L 17.200 271.576 17.200 200.232 L 17.200 128.887 71.207 78.043 L 125.215 27.200 201.507 27.227 L 277.800 27.255 330.300 78.127 M78.623 85.226 L 27.600 133.252 27.611 200.326 L 27.621 267.400 78.443 315.000 L 129.264 362.600 201.218 362.800 L 273.171 363.000 322.782 315.200 L 372.393 267.400 372.370 200.200 L 372.347 133.000 322.874 85.123 L 273.400 37.246 201.523 37.223 L 129.645 37.200 78.623 85.226 M116.203 110.346 C 118.312 111.304,120.163 113.465,120.931 115.863 C 121.272 116.929,122.376 120.410,123.384 123.600 C 124.391 126.790,125.304 129.643,125.411 129.941 C 125.539 130.295,126.778 129.372,129.002 127.267 C 149.808 107.573,182.798 111.411,197.773 135.268 L 199.699 138.336 201.981 134.868 C 218.694 109.470,255.106 107.578,274.047 131.122 L 276.400 134.047 276.397 132.324 C 276.396 131.249,276.087 130.148,275.577 129.400 C 271.033 122.732,272.315 116.558,278.600 114.842 C 280.719 114.263,313.873 114.251,319.116 114.827 C 334.651 116.534,347.183 127.359,351.731 143.000 C 352.980 147.294,353.218 168.441,352.081 174.004 C 348.951 189.313,336.175 201.558,320.800 203.984 C 315.565 204.810,279.002 204.520,277.284 203.639 C 272.470 201.170,271.402 196.151,274.600 191.021 C 275.941 188.870,276.399 187.733,276.396 186.566 L 276.391 185.000 275.310 186.400 C 255.472 212.096,217.078 209.875,200.729 182.087 L 199.721 180.373 198.250 182.887 C 183.574 207.952,148.073 211.733,127.880 190.381 C 120.423 182.496,117.103 175.220,115.313 162.838 L 115.000 160.676 112.800 167.830 C 109.018 180.128,103.783 183.001,96.850 176.582 C 93.517 173.497,93.600 173.380,93.600 181.149 L 93.600 187.899 95.400 190.893 C 98.159 195.483,97.798 199.679,94.400 202.539 C 92.272 204.329,91.067 204.458,77.734 204.325 L 65.267 204.200 63.537 202.983 C 59.436 200.099,58.826 195.789,61.800 190.708 L 63.600 187.633 63.600 159.424 L 63.600 131.214 61.966 128.544 C 58.600 123.045,59.228 118.625,63.774 115.813 L 65.736 114.600 85.117 114.485 L 104.497 114.371 106.754 112.407 C 110.171 109.435,112.892 108.842,116.203 110.346 M109.247 117.356 L 106.432 120.000 86.445 120.000 L 66.458 120.000 65.629 121.054 C 64.466 122.533,64.548 122.935,66.808 126.851 L 68.815 130.329 68.708 159.865 L 68.600 189.400 66.700 192.635 C 64.474 196.425,64.417 196.879,65.969 198.431 L 67.138 199.600 78.350 199.600 C 90.226 199.600,91.166 199.471,91.956 197.737 C 92.609 196.304,92.570 196.174,90.500 192.851 L 88.600 189.800 88.481 179.700 L 88.362 169.600 92.738 169.600 C 96.132 169.600,97.163 169.726,97.331 170.163 C 98.434 173.039,103.637 175.345,105.253 173.675 C 105.768 173.142,113.194 150.446,113.653 148.000 C 114.430 143.862,110.971 143.600,106.556 147.462 L 104.111 149.600 96.256 149.600 L 88.400 149.600 88.400 144.600 L 88.400 139.600 101.046 139.600 L 113.692 139.600 116.911 142.400 C 120.191 145.253,121.591 145.802,122.779 144.700 C 123.222 144.289,123.266 144.343,123.028 145.000 C 113.756 170.576,130.654 197.320,157.403 199.405 C 177.780 200.993,195.918 186.148,199.439 165.000 C 199.694 163.471,199.737 163.559,200.423 167.000 C 205.514 192.528,232.825 206.734,255.847 195.828 C 284.066 182.461,287.127 143.707,261.320 126.535 C 237.314 110.562,205.216 124.660,200.205 153.380 L 199.713 156.200 199.430 154.200 C 195.112 123.684,159.228 109.471,135.146 128.739 C 131.426 131.716,128.563 135.036,126.000 139.349 C 124.253 142.288,123.600 142.972,123.600 141.863 C 123.600 140.801,115.623 116.251,115.112 115.740 C 113.577 114.205,112.197 114.585,109.247 117.356 M116.611 126.700 C 118.284 131.925,120.091 137.551,120.626 139.201 C 122.120 143.804,121.899 143.881,117.785 140.200 L 114.880 137.600 100.640 137.600 L 86.400 137.600 86.400 144.800 L 86.400 152.000 95.700 151.981 L 105.000 151.963 107.800 149.385 C 110.518 146.882,111.627 146.270,111.575 147.300 C 111.506 148.676,103.730 172.161,103.297 172.304 C 103.020 172.394,101.566 171.283,100.065 169.834 L 97.336 167.200 91.868 167.200 L 86.400 167.200 86.400 178.708 L 86.400 190.217 88.200 193.292 C 89.190 194.983,90.000 196.554,90.000 196.783 C 90.000 197.062,86.238 197.200,78.600 197.200 C 70.043 197.200,67.200 197.081,67.200 196.723 C 67.200 196.461,67.965 194.976,68.900 193.423 L 70.600 190.600 70.707 159.866 L 70.815 129.132 68.965 126.165 C 66.141 121.634,64.496 122.000,87.700 122.000 L 107.825 122.000 110.200 119.600 C 113.469 116.297,113.177 115.974,116.611 126.700 M278.445 121.034 C 277.260 122.541,277.497 123.348,280.377 127.600 L 281.597 129.400 281.598 159.566 L 281.600 189.733 279.800 192.621 C 277.658 196.057,277.488 197.539,279.091 198.800 C 280.758 200.111,318.033 199.849,322.806 198.493 C 334.706 195.110,343.530 186.356,346.689 174.800 C 347.890 170.406,347.740 148.175,346.480 143.823 C 343.886 134.865,337.652 127.405,329.400 123.385 C 322.774 120.157,323.597 120.249,300.145 120.096 L 279.289 119.961 278.445 121.034 M169.200 123.196 C 197.763 130.524,207.158 166.476,185.806 186.745 C 161.798 209.534,122.800 192.759,122.800 159.643 C 122.800 135.077,145.626 117.147,169.200 123.196 M248.600 123.185 C 277.246 130.557,286.383 166.424,264.829 186.890 C 240.440 210.047,200.716 191.748,202.115 158.000 C 203.098 134.270,225.751 117.304,248.600 123.185 M322.000 122.872 C 334.809 126.404,343.525 136.241,345.236 149.099 C 345.884 153.971,345.490 170.595,344.648 173.897 C 341.776 185.153,332.317 194.194,320.874 196.619 C 317.843 197.262,280.622 197.483,280.238 196.861 C 280.122 196.674,280.922 195.069,282.014 193.294 L 284.000 190.067 284.000 159.629 L 284.000 129.191 282.000 126.000 C 280.900 124.245,280.000 122.615,280.000 122.378 C 280.000 121.644,319.222 122.106,322.000 122.872 M155.623 138.810 C 141.525 141.785,134.464 158.892,142.324 171.029 C 153.290 187.961,178.935 181.708,180.994 161.600 C 182.416 147.706,169.299 135.923,155.623 138.810 M234.254 139.035 C 218.572 142.830,213.015 163.193,224.549 174.595 C 237.902 187.795,260.349 178.479,260.394 159.720 C 260.427 145.936,247.617 135.800,234.254 139.035 M300.400 159.839 L 300.400 181.278 309.100 181.114 C 321.054 180.888,324.495 179.366,327.683 172.894 L 329.000 170.220 329.132 160.944 C 329.315 148.077,328.252 144.586,323.071 141.040 C 319.493 138.590,318.476 138.400,308.950 138.400 L 300.400 138.400 300.400 159.839 M319.887 141.709 C 325.853 144.829,326.570 146.634,326.726 158.920 C 326.890 171.943,326.103 174.222,320.342 177.413 L 318.200 178.600 310.300 178.730 L 302.400 178.860 302.400 159.593 L 302.400 140.326 310.100 140.472 C 317.572 140.613,317.862 140.650,319.887 141.709 M165.718 141.604 C 181.758 146.558,183.480 169.249,168.380 176.682 C 155.888 182.831,141.179 173.594,141.205 159.616 C 141.228 146.843,153.495 137.829,165.718 141.604 M244.200 141.348 C 261.042 145.887,263.185 169.135,247.466 176.783 C 234.006 183.332,218.355 171.567,220.750 156.700 C 222.536 145.611,233.467 138.456,244.200 141.348 M155.938 146.157 C 149.653 148.402,146.601 152.731,146.600 159.400 C 146.599 177.313,172.693 178.088,173.511 160.200 C 173.962 150.346,164.772 143.002,155.938 146.157 M234.933 146.340 C 225.396 149.636,222.534 161.871,229.598 169.150 C 235.965 175.711,247.648 173.963,251.569 165.864 C 256.975 154.696,246.461 142.357,234.933 146.340 M307.600 159.567 L 307.600 173.600 311.613 173.600 C 316.985 173.600,319.476 172.522,321.038 169.520 C 321.843 167.972,321.847 151.365,321.042 149.440 C 319.856 146.601,318.087 145.817,312.533 145.667 L 307.600 145.535 307.600 159.567 M191.513 211.020 C 195.018 212.482,195.725 213.715,199.029 224.114 L 201.289 231.228 204.756 227.886 C 224.412 208.937,255.478 210.903,271.415 232.105 L 273.200 234.479 273.200 232.863 C 273.200 231.653,272.772 230.564,271.500 228.535 C 268.346 223.505,269.399 218.146,274.022 215.701 C 275.930 214.692,305.894 214.302,311.506 215.213 C 327.776 217.853,338.400 230.797,338.400 247.980 C 338.400 264.737,331.353 272.810,309.600 280.977 L 303.800 283.154 303.679 285.632 C 303.564 288.004,303.647 288.253,305.627 291.481 C 308.763 296.596,307.828 301.444,303.237 303.869 C 300.734 305.191,276.572 305.314,273.720 304.020 C 271.587 303.051,268.249 298.739,268.629 297.444 C 269.077 295.920,270.804 292.282,272.013 290.317 C 272.820 289.005,273.200 287.865,273.200 286.754 L 273.200 285.121 271.402 287.513 C 252.972 312.030,214.559 309.928,198.088 283.500 C 192.103 273.899,189.649 260.101,192.231 250.575 C 192.408 249.920,191.880 249.271,189.683 247.441 L 186.911 245.132 183.455 245.066 L 180.000 245.000 180.000 266.504 L 180.000 288.009 182.000 291.200 C 185.493 296.773,184.328 301.999,179.107 304.181 C 176.691 305.191,152.830 305.074,150.600 304.042 C 145.653 301.751,144.590 296.992,147.800 291.508 L 149.600 288.433 149.600 266.617 L 149.600 244.800 146.397 244.800 L 143.193 244.800 140.762 247.035 C 139.425 248.264,137.619 249.589,136.750 249.978 C 135.881 250.367,134.737 251.272,134.208 251.989 C 133.680 252.705,132.878 253.550,132.426 253.867 C 131.617 254.433,131.627 254.471,133.159 256.521 C 139.985 265.654,140.676 279.286,134.817 289.200 C 127.063 302.321,110.466 308.032,95.256 302.812 L 91.912 301.665 90.656 302.437 C 87.240 304.538,83.287 304.087,80.475 301.275 C 78.085 298.885,78.000 298.206,78.000 281.532 L 78.000 266.557 79.049 264.452 C 79.694 263.157,80.666 261.971,81.572 261.371 L 83.046 260.395 81.734 257.698 C 75.142 244.143,80.968 226.392,94.349 219.259 C 102.234 215.057,113.991 213.915,121.630 216.610 C 122.979 217.086,123.304 217.061,124.655 216.372 C 126.583 215.389,128.925 215.402,131.144 216.409 C 133.296 217.385,133.088 217.421,133.396 216.017 C 134.534 210.837,143.700 209.320,147.828 213.629 L 148.950 214.800 164.916 214.800 L 180.882 214.800 182.884 213.000 C 185.738 210.435,188.558 209.788,191.513 211.020 M187.400 216.170 C 186.740 216.466,185.488 217.449,184.619 218.354 L 183.038 220.000 164.801 220.000 L 146.565 220.000 145.015 218.364 C 140.395 213.489,139.188 214.795,134.565 229.673 L 131.000 241.146 130.800 232.073 C 130.584 222.287,130.515 221.910,128.808 221.203 C 127.579 220.694,126.565 221.017,125.000 222.414 C 124.228 223.104,124.073 223.085,120.600 221.884 C 101.570 215.304,82.081 229.502,84.356 248.289 C 85.631 258.814,89.809 262.989,105.088 269.006 C 112.754 272.024,114.805 274.642,111.612 277.329 C 106.718 281.446,97.941 277.860,90.291 268.618 C 87.284 264.984,85.922 264.441,84.182 266.182 L 83.200 267.164 83.200 282.000 L 83.200 296.836 84.182 297.818 C 85.602 299.238,87.044 299.074,89.374 297.227 L 91.348 295.663 93.717 296.859 C 112.372 306.276,134.415 293.049,133.478 273.000 C 132.928 261.238,127.944 255.685,112.457 249.582 C 105.098 246.681,103.698 245.292,105.703 242.876 C 108.461 239.552,114.585 240.777,120.436 245.823 C 125.660 250.328,126.004 250.560,127.452 250.560 C 129.458 250.560,130.444 249.369,130.749 246.576 C 130.970 244.552,131.067 244.353,131.549 244.936 C 132.861 246.522,138.590 243.652,140.598 240.403 C 140.750 240.157,143.565 240.000,147.824 240.000 L 154.800 240.000 154.800 265.049 L 154.800 290.099 153.000 293.064 C 149.048 299.573,149.793 300.000,165.120 300.000 C 180.321 300.000,180.988 299.591,176.800 292.839 L 174.800 289.614 174.800 264.807 L 174.800 240.000 181.976 240.000 C 186.370 240.000,189.249 240.156,189.402 240.403 C 190.309 241.871,195.338 245.600,196.410 245.600 C 200.024 245.600,199.950 244.253,195.581 230.440 C 191.139 216.398,191.332 216.889,189.964 216.181 C 188.643 215.498,188.894 215.499,187.400 216.170 M193.282 230.574 C 197.260 243.090,197.559 244.760,195.505 242.953 C 195.007 242.515,193.550 241.222,192.268 240.079 L 189.936 238.000 181.368 238.000 L 172.800 238.000 172.800 264.306 L 172.800 290.613 174.770 293.792 C 175.854 295.541,176.654 297.113,176.547 297.286 C 176.296 297.692,153.200 297.699,153.200 297.294 C 153.200 297.125,154.096 295.550,155.191 293.794 L 157.182 290.600 157.191 264.300 L 157.200 238.000 148.462 238.000 C 140.077 238.000,139.693 238.034,138.962 238.845 C 136.949 241.077,133.537 243.697,133.149 243.309 C 132.738 242.898,139.641 219.971,140.498 218.900 C 141.199 218.024,141.995 218.350,144.163 220.400 L 146.277 222.400 165.052 222.400 L 183.827 222.400 186.011 220.189 C 189.134 217.026,188.844 216.612,193.282 230.574 M233.000 220.267 C 202.350 222.798,185.832 258.721,204.035 283.259 C 228.227 315.871,279.307 296.419,275.557 256.022 C 273.692 235.942,254.369 218.644,235.400 220.074 C 234.960 220.107,233.880 220.194,233.000 220.267 M276.526 220.403 C 274.280 221.308,274.303 223.422,276.600 227.113 L 278.400 230.006 278.400 259.979 L 278.400 289.952 276.401 293.276 C 272.515 299.737,272.632 299.800,288.477 299.800 L 300.871 299.800 301.635 298.856 C 302.770 297.454,302.600 296.658,300.400 293.083 L 298.400 289.833 298.400 284.806 L 298.400 279.778 305.300 277.242 C 327.413 269.113,333.183 263.104,333.195 248.184 C 333.208 232.907,323.816 222.078,309.084 220.384 C 304.968 219.910,277.709 219.926,276.526 220.403 M117.200 223.263 C 118.410 223.499,120.534 224.143,121.920 224.696 L 124.441 225.701 125.997 224.451 C 128.505 222.435,128.421 222.025,128.306 235.695 C 128.183 250.223,128.332 249.815,124.436 246.233 C 116.754 239.171,111.286 237.303,106.073 239.963 C 100.040 243.041,101.936 247.925,110.421 251.166 C 125.296 256.848,129.866 261.226,131.241 271.112 C 133.943 290.542,112.460 303.962,93.910 294.432 C 92.102 293.503,90.718 293.009,90.575 293.240 C 90.440 293.458,89.424 294.353,88.317 295.228 C 85.115 297.759,85.200 298.122,85.200 281.938 C 85.200 266.277,85.259 265.974,87.692 269.046 C 96.982 280.773,109.458 284.806,114.285 277.641 C 117.065 273.513,114.501 270.348,105.505 266.803 C 92.817 261.803,88.974 258.516,87.012 250.983 C 82.564 233.903,98.178 219.565,117.200 223.263 M246.168 223.791 C 274.259 232.020,282.928 267.132,261.805 287.126 C 237.225 310.393,197.608 292.321,198.910 258.436 C 199.841 234.221,223.233 217.072,246.168 223.791 M312.156 223.189 C 323.895 226.191,331.171 235.691,331.193 248.045 C 331.218 262.056,325.621 267.474,302.300 276.015 L 296.400 278.176 296.400 284.533 L 296.400 290.891 298.200 293.779 C 299.190 295.368,300.000 296.877,300.000 297.134 C 300.000 297.478,296.968 297.600,288.400 297.600 C 282.020 297.600,276.800 297.450,276.800 297.266 C 276.800 297.082,277.700 295.450,278.800 293.639 L 280.800 290.346 280.800 259.986 L 280.800 229.626 278.768 226.426 C 277.651 224.666,276.851 223.040,276.992 222.813 C 277.525 221.951,308.615 222.283,312.156 223.189 M296.400 249.793 L 296.400 261.586 300.275 260.183 C 307.669 257.506,311.659 255.546,313.685 253.593 L 315.600 251.747 315.600 248.261 C 315.600 240.262,312.725 238.010,302.500 238.004 L 296.400 238.000 296.400 249.793 M230.910 239.389 C 209.935 245.310,210.013 275.117,231.017 280.588 C 249.636 285.437,264.235 264.150,253.442 247.889 C 248.854 240.977,238.765 237.171,230.910 239.389 M308.591 240.446 C 309.477 240.692,310.851 241.557,311.691 242.397 L 313.200 243.906 313.200 247.512 L 313.200 251.117 311.760 252.381 C 310.969 253.076,309.304 254.102,308.060 254.661 C 305.561 255.785,298.954 258.400,298.615 258.400 C 298.497 258.400,298.400 254.260,298.400 249.200 L 298.400 240.000 302.700 240.002 C 305.065 240.003,307.716 240.203,308.591 240.446 M242.143 242.087 C 256.596 246.518,259.427 267.376,246.705 275.692 C 230.336 286.391,210.702 268.921,219.374 251.374 C 223.504 243.017,232.804 239.224,242.143 242.087 M303.600 247.956 L 303.600 250.755 305.700 249.828 C 307.772 248.913,307.800 248.878,307.800 247.151 L 307.800 245.400 305.700 245.279 L 303.600 245.158 303.600 247.956 M232.101 246.558 C 222.511 249.701,219.292 261.584,226.033 268.960 C 236.379 280.280,254.145 268.978,248.735 254.518 C 246.424 248.341,238.391 244.497,232.101 246.558 " stroke="none" fill="#d10b1a" fill-rule="evenodd"></path><path id="path2" d="M110.673 110.079 C 109.760 110.326,108.210 111.359,106.820 112.646 L 104.493 114.800 85.434 114.800 C 64.919 114.800,64.719 114.818,62.467 116.919 C 59.229 119.939,59.170 123.726,62.283 128.708 L 63.600 130.816 63.600 159.438 L 63.600 188.060 61.950 190.837 C 58.416 196.786,60.402 202.676,66.373 203.957 C 69.091 204.540,88.097 204.542,90.812 203.960 C 96.903 202.654,98.799 196.959,95.191 190.803 L 93.200 187.406 93.200 180.903 L 93.200 174.400 94.117 174.400 C 94.674 174.400,95.722 175.101,96.789 176.189 C 99.816 179.273,103.473 180.102,106.716 178.439 C 109.423 177.051,109.959 176.081,112.591 167.814 C 115.399 158.991,115.600 158.581,115.600 161.681 C 115.600 179.464,129.791 197.320,148.097 202.569 C 167.104 208.020,189.002 199.190,198.351 182.306 C 199.684 179.898,199.496 179.826,201.997 183.700 C 219.082 210.160,256.087 211.114,275.687 185.600 L 276.762 184.200 276.781 186.068 C 276.797 187.631,276.473 188.464,274.800 191.161 C 271.630 196.272,272.590 200.908,277.359 203.520 C 280.654 205.325,319.299 204.554,325.705 202.556 C 346.236 196.152,355.265 178.277,352.454 149.600 C 350.814 132.879,340.271 120.413,323.800 115.722 C 319.748 114.568,279.498 114.428,277.278 115.560 C 272.459 118.018,271.659 122.334,274.967 128.026 C 276.318 130.352,276.800 131.605,276.800 132.791 C 276.800 134.712,276.423 134.824,275.459 133.192 C 275.066 132.527,273.230 130.391,271.379 128.446 C 251.582 107.643,216.658 111.248,201.645 135.644 L 199.689 138.822 198.576 136.911 C 183.719 111.410,149.553 107.175,128.224 128.191 C 126.792 129.602,125.547 130.631,125.458 130.478 C 125.369 130.325,124.177 126.690,122.810 122.400 C 119.168 110.974,116.684 108.451,110.673 110.079 M115.099 115.700 C 115.627 116.266,117.377 121.126,119.815 128.800 C 121.948 135.510,123.811 141.220,123.955 141.488 C 124.113 141.781,124.937 140.750,126.009 138.916 C 143.889 108.358,190.937 116.077,198.993 150.891 C 199.518 153.160,199.957 154.438,199.972 153.745 C 200.107 147.665,205.396 137.271,211.349 131.386 C 236.655 106.366,278.859 123.852,278.962 159.400 C 279.056 191.977,243.892 210.749,216.809 192.578 C 208.460 186.976,200.265 173.866,199.962 165.625 C 199.942 165.061,199.491 166.380,198.961 168.556 C 190.559 203.056,145.752 210.848,126.541 181.151 C 120.408 171.671,118.546 157.840,122.036 147.696 C 122.989 144.926,122.988 144.671,122.026 145.186 C 120.900 145.789,119.787 145.215,116.681 142.435 L 113.962 140.000 101.381 140.000 L 88.800 140.000 88.800 144.800 L 88.800 149.600 96.392 149.600 L 103.984 149.600 106.636 147.197 C 110.323 143.855,112.749 143.604,113.754 146.460 C 114.270 147.929,106.375 173.061,105.073 174.091 C 103.395 175.419,102.144 175.014,99.229 172.200 L 96.536 169.600 92.668 169.600 L 88.800 169.600 88.800 179.666 L 88.800 189.733 90.600 192.621 C 92.647 195.905,92.825 197.211,91.418 198.618 L 90.436 199.600 78.600 199.600 L 66.764 199.600 65.782 198.618 C 64.371 197.208,64.553 195.829,66.600 192.400 L 68.391 189.400 68.395 159.590 L 68.400 129.779 66.600 126.887 C 64.515 123.536,64.321 122.043,65.782 120.582 L 66.764 119.600 86.648 119.600 L 106.532 119.600 109.031 117.200 C 111.890 114.455,113.555 114.044,115.099 115.700 M322.800 120.578 C 334.797 123.895,343.536 132.615,346.873 144.600 C 348.209 149.400,348.227 170.141,346.898 174.900 C 344.163 184.698,336.852 193.118,327.779 196.920 C 321.721 199.460,322.850 199.353,300.305 199.506 L 279.610 199.646 278.605 198.641 C 277.188 197.224,277.330 196.358,279.600 192.600 L 281.600 189.289 281.600 159.611 L 281.600 129.933 279.600 126.683 C 277.336 123.005,277.173 121.991,278.611 120.553 L 279.622 119.542 299.911 119.701 C 317.888 119.842,320.496 119.942,322.800 120.578 M155.242 141.433 C 138.744 145.870,136.487 168.674,151.772 176.490 C 162.812 182.134,176.310 175.162,178.414 162.728 C 180.667 149.413,168.193 137.950,155.242 141.433 M235.000 141.352 C 213.221 147.206,217.882 179.530,240.328 178.306 C 260.478 177.207,264.738 149.055,245.817 142.034 C 242.830 140.925,237.774 140.607,235.000 141.352 M302.800 159.838 L 302.800 178.876 310.100 178.725 C 319.842 178.523,324.111 176.432,326.068 170.903 C 327.119 167.932,326.802 150.248,325.652 147.703 C 323.231 142.347,319.763 140.809,310.100 140.804 L 302.800 140.800 302.800 159.838 M165.076 146.410 C 172.639 149.005,176.140 158.264,172.417 165.825 C 168.722 173.333,159.032 175.877,152.318 171.104 C 138.746 161.455,149.313 141.002,165.076 146.410 M244.659 146.469 C 253.694 149.793,256.146 162.970,248.962 169.592 C 239.822 178.017,225.600 171.812,225.600 159.400 C 225.600 149.273,234.980 142.909,244.659 146.469 M318.722 146.545 C 321.812 148.688,322.075 149.804,321.928 160.147 L 321.800 169.128 320.572 170.664 C 318.569 173.168,317.296 173.599,311.900 173.599 L 307.200 173.600 307.200 159.667 C 307.200 152.003,307.334 145.599,307.498 145.435 C 308.396 144.537,317.062 145.393,318.722 146.545 M185.400 211.363 C 184.740 211.656,183.362 212.639,182.339 213.548 L 180.477 215.200 164.713 215.200 L 148.950 215.200 147.775 213.963 C 144.186 210.186,138.303 210.271,134.897 214.151 C 134.183 214.963,133.597 215.847,133.594 216.114 C 133.578 217.411,132.969 217.600,131.394 216.797 C 129.523 215.843,126.556 215.757,124.544 216.598 C 123.230 217.146,122.849 217.124,119.857 216.327 C 105.883 212.600,89.419 218.948,83.007 230.533 C 78.394 238.867,78.016 249.660,82.046 257.928 C 82.723 259.318,83.215 260.495,83.139 260.544 C 78.239 263.662,78.354 263.120,78.487 282.341 L 78.600 298.663 79.691 300.094 C 82.249 303.446,86.117 304.419,89.772 302.631 L 91.974 301.554 95.887 302.869 C 109.682 307.504,126.009 302.120,133.829 290.357 C 140.540 280.262,139.978 264.728,132.590 256.097 L 131.241 254.520 132.393 253.669 C 133.026 253.200,133.865 252.274,134.257 251.612 C 134.648 250.949,135.532 250.220,136.220 249.993 C 136.909 249.766,138.716 248.511,140.236 247.203 L 143.000 244.827 146.500 244.813 L 150.000 244.800 150.000 266.562 L 150.000 288.324 148.204 291.237 C 144.873 296.641,145.554 301.022,150.136 303.646 C 151.858 304.633,175.363 305.170,178.493 304.294 C 183.641 302.853,185.327 296.916,182.052 291.758 L 180.013 288.547 179.992 266.774 L 179.971 245.000 183.382 244.884 L 186.793 244.769 189.718 247.210 L 192.643 249.651 192.093 252.726 C 188.298 273.928,202.522 296.649,223.400 302.735 C 241.117 307.899,262.017 301.009,271.635 286.833 C 274.422 282.725,274.552 286.594,271.782 291.200 C 270.790 292.850,269.681 295.141,269.319 296.292 L 268.659 298.384 270.430 300.656 C 273.536 304.643,273.339 304.600,288.400 304.600 C 303.200 304.600,303.657 304.510,305.884 301.145 C 307.901 298.097,307.713 295.290,305.222 291.274 C 303.253 288.100,303.168 287.847,303.282 285.494 L 303.400 283.033 309.587 280.714 C 331.302 272.575,338.203 264.631,338.181 247.800 C 338.159 231.619,329.203 219.923,313.836 216.006 C 308.693 214.696,276.161 214.782,273.812 216.113 C 269.272 218.684,268.591 223.555,272.014 228.975 C 273.202 230.857,273.600 231.902,273.600 233.143 C 273.600 235.289,273.325 235.216,271.424 232.563 C 255.971 211.007,223.309 209.220,203.931 228.870 C 202.243 230.582,201.125 231.446,201.016 231.123 C 200.920 230.835,199.749 227.174,198.415 222.986 C 197.082 218.798,195.549 214.723,195.010 213.929 C 193.171 211.223,188.518 209.981,185.400 211.363 M190.591 216.500 C 191.994 217.718,199.849 242.044,199.329 243.559 C 198.241 246.731,196.048 246.571,191.983 243.022 L 189.000 240.419 182.100 240.409 L 175.200 240.400 175.200 265.187 L 175.200 289.974 177.234 293.177 C 181.311 299.599,180.586 300.000,164.893 300.000 L 152.764 300.000 151.782 299.018 C 150.384 297.621,150.555 296.621,152.809 293.006 L 154.800 289.813 154.800 265.106 L 154.800 240.400 147.874 240.400 L 140.947 240.400 138.067 242.994 C 134.803 245.934,133.576 246.430,131.922 245.481 L 130.800 244.837 130.787 246.719 C 130.774 248.724,130.329 249.587,128.926 250.335 C 127.160 251.275,126.182 250.880,122.544 247.756 C 114.380 240.746,109.831 239.401,106.100 242.896 C 103.674 245.169,105.035 246.488,113.046 249.634 C 126.693 254.992,131.697 259.904,133.451 269.660 C 137.280 290.957,114.738 306.613,93.913 297.119 L 91.227 295.894 89.769 297.174 C 87.011 299.595,84.637 299.591,83.381 297.164 C 82.502 295.463,82.525 268.492,83.407 266.786 C 84.812 264.069,87.026 264.689,90.734 268.835 C 99.138 278.235,107.305 281.386,111.746 276.944 C 114.280 274.411,112.148 271.912,105.181 269.249 C 89.410 263.219,84.674 258.128,84.114 246.600 C 83.205 227.906,101.909 215.384,121.117 221.827 L 124.034 222.806 125.510 221.803 C 129.867 218.842,130.758 220.463,130.892 231.587 L 131.000 240.539 134.579 229.036 C 139.091 214.534,140.130 213.430,144.963 218.000 L 147.077 220.000 165.002 220.000 L 182.928 220.000 185.234 217.800 C 187.818 215.335,188.938 215.064,190.591 216.500 M242.997 220.611 C 270.484 225.404,284.800 257.140,270.122 280.740 C 253.078 308.143,213.635 305.794,199.937 276.561 C 195.199 266.452,195.231 253.245,200.017 243.234 C 208.004 226.528,225.156 217.499,242.997 220.611 M314.511 221.269 C 326.253 225.244,333.068 234.348,333.512 246.653 C 334.080 262.404,328.080 269.036,305.878 277.200 L 298.806 279.800 298.803 284.949 L 298.800 290.099 300.600 293.064 C 302.606 296.367,302.813 297.708,301.530 299.074 L 300.661 300.000 288.311 300.000 L 275.962 300.000 274.981 298.942 C 273.666 297.523,273.678 297.470,276.200 293.306 L 278.400 289.674 278.398 259.937 L 278.397 230.200 277.177 228.400 C 274.159 223.944,273.936 223.013,275.455 221.208 L 276.509 219.954 293.955 220.085 L 311.400 220.216 314.511 221.269 M298.800 249.200 C 298.800 254.040,298.950 258.000,299.134 258.000 C 299.437 258.000,304.924 255.796,308.400 254.278 C 309.170 253.941,310.582 253.098,311.539 252.403 L 313.277 251.139 313.139 247.595 C 312.912 241.814,311.001 240.400,303.413 240.400 L 298.800 240.400 298.800 249.200 M230.309 242.138 C 215.029 247.345,212.961 267.894,226.872 276.283 C 237.297 282.570,251.035 276.685,254.188 264.583 C 257.866 250.460,244.035 237.460,230.309 242.138 M307.626 245.214 C 310.049 246.511,307.054 250.770,303.700 250.796 C 303.166 250.800,302.953 245.580,303.467 245.067 C 303.882 244.651,306.765 244.753,307.626 245.214 M241.459 246.865 C 250.534 250.224,252.871 263.796,245.483 270.233 C 235.434 278.990,220.360 270.594,222.465 257.412 C 223.872 248.599,232.780 243.652,241.459 246.865 " stroke="none" fill="#2d2b2b" fill-rule="evenodd"></path><path id="path3" d="M280.800 30.600 C 282.660 32.470,284.272 34.000,284.382 34.000 C 284.492 34.000,283.060 32.470,281.200 30.600 C 279.340 28.730,277.728 27.200,277.618 27.200 C 277.508 27.200,278.940 28.730,280.800 30.600 M122.187 30.100 L 119.800 32.600 122.300 30.213 C 123.675 28.899,124.800 27.774,124.800 27.713 C 124.800 27.417,124.405 27.778,122.187 30.100 M115.387 36.500 L 113.000 39.000 115.500 36.613 C 117.822 34.395,118.183 34.000,117.887 34.000 C 117.826 34.000,116.701 35.125,115.387 36.500 M129.149 37.500 C 128.663 38.120,128.673 38.143,129.240 37.701 C 129.744 37.308,145.050 37.181,201.640 37.100 L 273.400 36.998 201.549 36.899 C 133.528 36.805,129.669 36.837,129.149 37.500 M292.800 42.200 C 294.881 44.290,296.674 46.000,296.784 46.000 C 296.894 46.000,295.281 44.290,293.200 42.200 C 291.119 40.110,289.326 38.400,289.216 38.400 C 289.106 38.400,290.719 40.110,292.800 42.200 M124.187 42.100 L 121.800 44.600 124.300 42.213 C 126.622 39.995,126.983 39.600,126.687 39.600 C 126.626 39.600,125.501 40.725,124.187 42.100 M280.000 43.800 C 282.081 45.890,283.874 47.600,283.984 47.600 C 284.094 47.600,282.481 45.890,280.400 43.800 C 278.319 41.710,276.526 40.000,276.416 40.000 C 276.306 40.000,277.919 41.710,280.000 43.800 M108.587 42.900 L 106.200 45.400 108.700 43.013 C 110.075 41.699,111.200 40.574,111.200 40.513 C 111.200 40.217,110.805 40.578,108.587 42.900 M117.387 48.500 L 115.000 51.000 117.500 48.613 C 119.822 46.395,120.183 46.000,119.887 46.000 C 119.826 46.000,118.701 47.125,117.387 48.500 M101.787 49.300 L 99.400 51.800 101.900 49.413 C 104.222 47.195,104.583 46.800,104.287 46.800 C 104.226 46.800,103.101 47.925,101.787 49.300 M305.400 54.400 C 307.592 56.600,309.475 58.400,309.585 58.400 C 309.695 58.400,307.992 56.600,305.800 54.400 C 303.608 52.200,301.725 50.400,301.615 50.400 C 301.505 50.400,303.208 52.200,305.400 54.400 M292.400 55.800 C 294.481 57.890,296.274 59.600,296.384 59.600 C 296.494 59.600,294.881 57.890,292.800 55.800 C 290.719 53.710,288.926 52.000,288.816 52.000 C 288.706 52.000,290.319 53.710,292.400 55.800 M110.587 54.900 L 108.200 57.400 110.700 55.013 C 113.022 52.795,113.383 52.400,113.087 52.400 C 113.026 52.400,111.901 53.525,110.587 54.900 M94.987 55.700 L 92.600 58.200 95.100 55.813 C 96.475 54.499,97.600 53.374,97.600 53.313 C 97.600 53.017,97.205 53.378,94.987 55.700 M103.787 61.300 L 101.400 63.800 103.900 61.413 C 106.222 59.195,106.583 58.800,106.287 58.800 C 106.226 58.800,105.101 59.925,103.787 61.300 M88.187 62.100 L 85.800 64.600 88.300 62.213 C 89.675 60.899,90.800 59.774,90.800 59.713 C 90.800 59.417,90.405 59.778,88.187 62.100 M317.800 66.400 C 319.771 68.380,321.473 70.000,321.583 70.000 C 321.693 70.000,320.171 68.380,318.200 66.400 C 316.229 64.420,314.527 62.800,314.417 62.800 C 314.307 62.800,315.829 64.420,317.800 66.400 M304.800 67.800 C 306.881 69.890,308.674 71.600,308.784 71.600 C 308.894 71.600,307.281 69.890,305.200 67.800 C 303.119 65.710,301.326 64.000,301.216 64.000 C 301.106 64.000,302.719 65.710,304.800 67.800 M96.987 67.700 L 94.600 70.200 97.100 67.813 C 98.475 66.499,99.600 65.374,99.600 65.313 C 99.600 65.017,99.205 65.378,96.987 67.700 M81.387 68.500 L 79.000 71.000 81.500 68.613 C 82.875 67.299,84.000 66.174,84.000 66.113 C 84.000 65.817,83.605 66.178,81.387 68.500 M90.187 74.100 L 87.800 76.600 90.300 74.213 C 91.675 72.899,92.800 71.774,92.800 71.713 C 92.800 71.417,92.405 71.778,90.187 74.100 M74.587 74.900 L 72.200 77.400 74.700 75.013 C 76.075 73.699,77.200 72.574,77.200 72.513 C 77.200 72.217,76.805 72.578,74.587 74.900 M330.400 78.600 C 332.481 80.690,334.274 82.400,334.384 82.400 C 334.494 82.400,332.881 80.690,330.800 78.600 C 328.719 76.510,326.926 74.800,326.816 74.800 C 326.706 74.800,328.319 76.510,330.400 78.600 M317.200 79.800 C 319.281 81.890,321.074 83.600,321.184 83.600 C 321.294 83.600,319.681 81.890,317.600 79.800 C 315.519 77.710,313.726 76.000,313.616 76.000 C 313.506 76.000,315.119 77.710,317.200 79.800 M83.387 80.500 L 81.000 83.000 83.500 80.613 C 84.875 79.299,86.000 78.174,86.000 78.113 C 86.000 77.817,85.605 78.178,83.387 80.500 M67.787 81.300 L 65.400 83.800 67.900 81.413 C 70.222 79.195,70.583 78.800,70.287 78.800 C 70.226 78.800,69.101 79.925,67.787 81.300 M76.587 86.900 L 74.200 89.400 76.700 87.013 C 79.022 84.795,79.383 84.400,79.087 84.400 C 79.026 84.400,77.901 85.525,76.587 86.900 M60.987 87.700 L 58.600 90.200 61.100 87.813 C 62.475 86.499,63.600 85.374,63.600 85.313 C 63.600 85.017,63.205 85.378,60.987 87.700 M342.800 90.600 C 344.881 92.690,346.674 94.400,346.784 94.400 C 346.894 94.400,345.281 92.690,343.200 90.600 C 341.119 88.510,339.326 86.800,339.216 86.800 C 339.106 86.800,340.719 88.510,342.800 90.600 M329.600 91.800 C 331.681 93.890,333.474 95.600,333.584 95.600 C 333.694 95.600,332.081 93.890,330.000 91.800 C 327.919 89.710,326.126 88.000,326.016 88.000 C 325.906 88.000,327.519 89.710,329.600 91.800 M69.787 93.300 L 67.400 95.800 69.900 93.413 C 71.275 92.099,72.400 90.974,72.400 90.913 C 72.400 90.617,72.005 90.978,69.787 93.300 M53.988 94.300 L 51.400 97.000 54.100 94.412 C 55.585 92.988,56.800 91.773,56.800 91.712 C 56.800 91.417,56.393 91.792,53.988 94.300 M62.987 99.700 L 60.600 102.200 63.100 99.813 C 65.422 97.595,65.783 97.200,65.487 97.200 C 65.426 97.200,64.301 98.325,62.987 99.700 M47.186 100.700 L 45.000 103.000 47.300 100.814 C 48.565 99.611,49.600 98.576,49.600 98.514 C 49.600 98.217,49.218 98.563,47.186 100.700 M355.200 102.600 C 357.281 104.690,359.074 106.400,359.184 106.400 C 359.294 106.400,357.681 104.690,355.600 102.600 C 353.519 100.510,351.726 98.800,351.616 98.800 C 351.506 98.800,353.119 100.510,355.200 102.600 M342.000 103.800 C 344.081 105.890,345.874 107.600,345.984 107.600 C 346.094 107.600,344.481 105.890,342.400 103.800 C 340.319 101.710,338.526 100.000,338.416 100.000 C 338.306 100.000,339.919 101.710,342.000 103.800 M56.187 106.100 L 53.800 108.600 56.300 106.213 C 58.622 103.995,58.983 103.600,58.687 103.600 C 58.626 103.600,57.501 104.725,56.187 106.100 M40.388 107.100 L 37.800 109.800 40.500 107.212 C 41.985 105.788,43.200 104.573,43.200 104.512 C 43.200 104.217,42.793 104.592,40.388 107.100 M49.387 112.500 L 47.000 115.000 49.500 112.613 C 51.822 110.395,52.183 110.000,51.887 110.000 C 51.826 110.000,50.701 111.125,49.387 112.500 M367.600 114.600 C 369.681 116.690,371.474 118.400,371.584 118.400 C 371.694 118.400,370.081 116.690,368.000 114.600 C 365.919 112.510,364.126 110.800,364.016 110.800 C 363.906 110.800,365.519 112.510,367.600 114.600 M33.586 113.500 L 31.400 115.800 33.700 113.614 C 34.965 112.411,36.000 111.376,36.000 111.314 C 36.000 111.017,35.618 111.363,33.586 113.500 M354.400 115.800 C 356.481 117.890,358.274 119.600,358.384 119.600 C 358.494 119.600,356.881 117.890,354.800 115.800 C 352.719 113.710,350.926 112.000,350.816 112.000 C 350.706 112.000,352.319 113.710,354.400 115.800 M42.587 118.900 L 40.200 121.400 42.700 119.013 C 45.022 116.795,45.383 116.400,45.087 116.400 C 45.026 116.400,43.901 117.525,42.587 118.900 M26.788 119.900 L 24.200 122.600 26.900 120.012 C 29.408 117.607,29.783 117.200,29.488 117.200 C 29.427 117.200,28.212 118.415,26.788 119.900 M77.500 122.300 C 83.055 122.362,92.145 122.362,97.700 122.300 C 103.255 122.237,98.710 122.186,87.600 122.186 C 76.490 122.186,71.945 122.237,77.500 122.300 M158.100 122.294 C 159.145 122.376,160.855 122.376,161.900 122.294 C 162.945 122.212,162.090 122.144,160.000 122.144 C 157.910 122.144,157.055 122.212,158.100 122.294 M237.300 122.294 C 238.345 122.376,240.055 122.376,241.100 122.294 C 242.145 122.212,241.290 122.144,239.200 122.144 C 237.110 122.144,236.255 122.212,237.300 122.294 M280.000 122.576 C 280.000 122.893,280.178 123.263,280.395 123.397 C 280.622 123.537,280.690 123.378,280.554 123.025 C 280.343 122.476,282.347 122.396,298.859 122.300 L 317.400 122.192 298.700 122.096 C 282.640 122.014,280.000 122.081,280.000 122.576 M35.988 125.100 L 33.400 127.800 36.100 125.212 C 38.608 122.807,38.983 122.400,38.688 122.400 C 38.627 122.400,37.412 123.615,35.988 125.100 M379.499 126.008 L 382.398 129.017 382.500 200.408 L 382.602 271.800 382.701 200.390 L 382.800 128.980 379.700 125.990 L 376.600 123.000 379.499 126.008 M19.588 126.700 L 17.000 129.400 19.700 126.812 C 21.185 125.388,22.400 124.173,22.400 124.112 C 22.400 123.817,21.993 124.192,19.588 126.700 M366.800 127.800 C 368.881 129.890,370.674 131.600,370.784 131.600 C 370.894 131.600,369.281 129.890,367.200 127.800 C 365.119 125.710,363.326 124.000,363.216 124.000 C 363.106 124.000,364.719 125.710,366.800 127.800 M327.233 124.949 C 327.645 125.317,330.000 126.400,330.000 126.221 C 330.000 125.990,327.782 124.800,327.353 124.800 C 327.196 124.800,327.142 124.867,327.233 124.949 M336.200 131.200 C 337.506 132.520,338.665 133.600,338.775 133.600 C 338.885 133.600,337.906 132.520,336.600 131.200 C 335.294 129.880,334.135 128.800,334.025 128.800 C 333.915 128.800,334.894 129.880,336.200 131.200 M29.385 131.300 L 27.400 133.400 29.500 131.415 C 30.655 130.323,31.600 129.378,31.600 129.315 C 31.600 129.017,31.229 129.349,29.385 131.300 M70.990 159.200 C 70.990 175.810,71.039 182.605,71.100 174.300 C 71.160 165.995,71.160 152.405,71.100 144.100 C 71.039 135.795,70.990 142.590,70.990 159.200 M17.396 200.600 C 17.396 239.760,17.443 255.721,17.500 236.068 C 17.557 216.416,17.557 184.376,17.500 164.868 C 17.443 145.361,17.396 161.440,17.396 200.600 M185.800 132.800 C 187.328 134.340,188.669 135.600,188.779 135.600 C 188.889 135.600,187.728 134.340,186.200 132.800 C 184.672 131.260,183.331 130.000,183.221 130.000 C 183.111 130.000,184.272 131.260,185.800 132.800 M133.200 133.400 C 132.228 134.390,131.523 135.200,131.633 135.200 C 131.743 135.200,132.628 134.390,133.600 133.400 C 134.572 132.410,135.277 131.600,135.167 131.600 C 135.057 131.600,134.172 132.410,133.200 133.400 M86.090 144.700 L 86.181 152.200 86.299 144.905 L 86.418 137.610 100.709 137.500 L 115.000 137.390 100.500 137.295 L 86.000 137.200 86.090 144.700 M116.400 139.000 C 117.146 139.770,117.847 140.400,117.957 140.400 C 118.067 140.400,117.546 139.770,116.800 139.000 C 116.054 138.230,115.353 137.600,115.243 137.600 C 115.133 137.600,115.654 138.230,116.400 139.000 M300.096 159.700 L 300.193 181.400 300.300 159.908 L 300.407 138.416 308.703 138.300 L 317.000 138.183 308.500 138.091 L 300.000 138.000 300.096 159.700 M144.981 144.500 L 143.400 146.200 145.100 144.619 C 146.681 143.148,146.984 142.800,146.681 142.800 C 146.616 142.800,145.851 143.565,144.981 144.500 M109.949 147.500 C 109.446 148.141,109.462 148.151,110.130 147.626 C 110.765 147.127,110.909 147.127,111.224 147.626 C 111.523 148.097,111.589 148.075,111.594 147.500 C 111.597 147.115,111.352 146.800,111.049 146.800 C 110.746 146.800,110.251 147.115,109.949 147.500 M106.581 150.500 L 105.000 152.200 106.700 150.619 C 108.281 149.148,108.584 148.800,108.281 148.800 C 108.216 148.800,107.451 149.565,106.581 150.500 M345.372 159.600 C 345.372 164.770,345.429 166.885,345.499 164.300 C 345.568 161.715,345.568 157.485,345.499 154.900 C 345.429 152.315,345.372 154.430,345.372 159.600 M329.365 159.800 C 329.366 163.760,329.426 165.326,329.498 163.280 C 329.571 161.234,329.571 157.994,329.498 156.080 C 329.424 154.166,329.365 155.840,329.365 159.800 M202.101 156.200 C 202.105 157.080,202.187 157.393,202.283 156.895 C 202.379 156.398,202.375 155.678,202.275 155.295 C 202.175 154.913,202.096 155.320,202.101 156.200 M276.501 156.600 C 276.505 157.480,276.587 157.793,276.683 157.295 C 276.779 156.798,276.775 156.078,276.675 155.695 C 276.575 155.313,276.496 155.720,276.501 156.600 M138.893 157.200 C 138.893 157.970,138.975 158.285,139.076 157.900 C 139.176 157.515,139.176 156.885,139.076 156.500 C 138.975 156.115,138.893 156.430,138.893 157.200 M197.344 159.600 C 197.344 161.690,197.412 162.545,197.494 161.500 C 197.576 160.455,197.576 158.745,197.494 157.700 C 197.412 156.655,197.344 157.510,197.344 159.600 M218.128 159.600 C 218.128 161.030,218.201 161.615,218.289 160.900 C 218.378 160.185,218.378 159.015,218.289 158.300 C 218.201 157.585,218.128 158.170,218.128 159.600 M260.509 159.600 C 260.509 160.590,260.587 160.995,260.682 160.500 C 260.778 160.005,260.778 159.195,260.682 158.700 C 260.587 158.205,260.509 158.610,260.509 159.600 M138.893 162.000 C 138.893 162.770,138.975 163.085,139.076 162.700 C 139.176 162.315,139.176 161.685,139.076 161.300 C 138.975 160.915,138.893 161.230,138.893 162.000 M276.501 162.600 C 276.505 163.480,276.587 163.793,276.683 163.295 C 276.779 162.798,276.775 162.078,276.675 161.695 C 276.575 161.313,276.496 161.720,276.501 162.600 M202.101 163.000 C 202.105 163.880,202.187 164.193,202.283 163.695 C 202.379 163.198,202.375 162.478,202.275 162.095 C 202.175 161.713,202.096 162.120,202.101 163.000 M86.176 178.400 C 86.176 184.670,86.232 187.235,86.299 184.100 C 86.367 180.965,86.367 175.835,86.299 172.700 C 86.232 169.565,86.176 172.130,86.176 178.400 M99.800 169.600 C 101.106 170.920,102.265 172.000,102.375 172.000 C 102.485 172.000,101.506 170.920,100.200 169.600 C 98.894 168.280,97.735 167.200,97.625 167.200 C 97.515 167.200,98.494 168.280,99.800 169.600 M219.600 167.753 C 219.600 168.182,220.790 170.400,221.021 170.400 C 221.131 170.400,220.923 169.815,220.559 169.100 C 219.817 167.640,219.600 167.336,219.600 167.753 M144.783 174.500 C 146.441 176.266,146.800 176.584,146.800 176.283 C 146.800 176.219,145.945 175.364,144.900 174.383 L 143.000 172.600 144.783 174.500 M223.200 173.725 C 223.200 173.794,223.785 174.379,224.500 175.025 L 225.800 176.200 224.625 174.900 C 223.530 173.688,223.200 173.416,223.200 173.725 M254.175 174.900 L 253.000 176.200 254.300 175.025 C 255.015 174.379,255.600 173.794,255.600 173.725 C 255.600 173.416,255.270 173.688,254.175 174.900 M272.678 176.205 C 272.312 176.972,272.095 177.600,272.196 177.600 C 272.470 177.600,273.684 175.151,273.501 174.968 C 273.414 174.881,273.044 175.438,272.678 176.205 M158.700 181.089 C 159.415 181.178,160.585 181.178,161.300 181.089 C 162.015 181.001,161.430 180.928,160.000 180.928 C 158.570 180.928,157.985 181.001,158.700 181.089 M238.307 181.090 C 239.026 181.179,240.106 181.177,240.707 181.086 C 241.308 180.995,240.720 180.922,239.400 180.924 C 238.080 180.926,237.588 181.001,238.307 181.090 M186.400 185.800 C 184.761 187.450,183.510 188.800,183.620 188.800 C 183.730 188.800,185.161 187.450,186.800 185.800 C 188.439 184.150,189.690 182.800,189.580 182.800 C 189.470 182.800,188.039 184.150,186.400 185.800 M134.000 186.600 C 135.195 187.810,136.263 188.800,136.373 188.800 C 136.483 188.800,135.595 187.810,134.400 186.600 C 133.205 185.390,132.137 184.400,132.027 184.400 C 131.917 184.400,132.805 185.390,134.000 186.600 M336.187 188.100 L 333.800 190.600 336.300 188.213 C 337.675 186.899,338.800 185.774,338.800 185.713 C 338.800 185.417,338.405 185.778,336.187 188.100 M155.700 197.076 C 156.085 197.176,156.715 197.176,157.100 197.076 C 157.485 196.975,157.170 196.893,156.400 196.893 C 155.630 196.893,155.315 196.975,155.700 197.076 M163.300 197.076 C 163.685 197.176,164.315 197.176,164.700 197.076 C 165.085 196.975,164.770 196.893,164.000 196.893 C 163.230 196.893,162.915 196.975,163.300 197.076 M234.900 197.076 C 235.285 197.176,235.915 197.176,236.300 197.076 C 236.685 196.975,236.370 196.893,235.600 196.893 C 234.830 196.893,234.515 196.975,234.900 197.076 M242.500 197.076 C 242.885 197.176,243.515 197.176,243.900 197.076 C 244.285 196.975,243.970 196.893,243.200 196.893 C 242.430 196.893,242.115 196.975,242.500 197.076 M316.705 197.083 C 317.202 197.179,317.922 197.175,318.305 197.075 C 318.687 196.975,318.280 196.896,317.400 196.901 C 316.520 196.905,316.207 196.987,316.705 197.083 M186.011 220.189 L 183.827 222.400 165.027 222.400 L 146.227 222.400 144.214 220.500 L 142.200 218.600 144.185 220.700 L 146.170 222.800 164.999 222.800 L 183.827 222.800 186.000 220.600 C 188.142 218.431,188.937 218.005,189.337 218.810 C 189.449 219.036,189.494 218.990,189.437 218.710 C 189.212 217.597,188.093 218.080,186.011 220.189 M110.305 222.683 C 110.802 222.779,111.522 222.775,111.905 222.675 C 112.287 222.575,111.880 222.496,111.000 222.501 C 110.120 222.505,109.807 222.587,110.305 222.683 M233.900 222.695 C 235.055 222.776,236.945 222.776,238.100 222.695 C 239.255 222.614,238.310 222.548,236.000 222.548 C 233.690 222.548,232.745 222.614,233.900 222.695 M277.067 222.667 C 276.920 222.813,276.803 223.128,276.806 223.367 C 276.810 223.627,276.938 223.602,277.127 223.305 C 277.367 222.927,281.292 222.783,293.621 222.700 L 309.800 222.591 293.567 222.495 C 284.638 222.443,277.213 222.520,277.067 222.667 M209.200 233.800 C 208.228 234.790,207.523 235.600,207.633 235.600 C 207.743 235.600,208.628 234.790,209.600 233.800 C 210.572 232.810,211.277 232.000,211.167 232.000 C 211.057 232.000,210.172 232.810,209.200 233.800 M144.078 237.898 C 146.431 237.969,150.391 237.969,152.878 237.899 C 155.365 237.829,153.440 237.771,148.600 237.770 C 143.760 237.770,141.725 237.828,144.078 237.898 M172.400 264.176 C 172.400 278.793,172.535 290.836,172.700 290.938 C 172.865 291.040,172.952 279.171,172.894 264.562 L 172.789 238.000 181.314 238.000 C 187.569 238.000,189.989 238.133,190.401 238.500 C 190.878 238.925,190.882 238.896,190.432 238.300 C 189.956 237.671,189.017 237.600,181.151 237.600 L 172.400 237.600 172.400 264.176 M296.094 249.900 L 296.188 262.200 296.300 250.111 L 296.412 238.021 302.306 237.899 L 308.200 237.777 302.100 237.688 L 296.000 237.600 296.094 249.900 M235.105 238.683 C 235.602 238.779,236.322 238.775,236.705 238.675 C 237.087 238.575,236.680 238.496,235.800 238.501 C 234.920 238.505,234.607 238.587,235.105 238.683 M137.178 240.300 L 135.800 241.800 137.300 240.422 C 138.696 239.138,138.984 238.800,138.678 238.800 C 138.612 238.800,137.937 239.475,137.178 240.300 M192.000 239.725 C 192.000 239.794,192.585 240.379,193.300 241.025 L 194.600 242.200 193.425 240.900 C 192.330 239.688,192.000 239.416,192.000 239.725 M132.846 242.476 C 132.785 243.370,133.549 243.812,134.135 243.221 C 134.489 242.864,134.442 242.813,133.935 243.006 C 133.491 243.175,133.207 243.016,133.081 242.529 C 132.920 241.904,132.886 241.896,132.846 242.476 M195.662 242.969 C 196.335 243.707,197.205 243.541,197.194 242.676 C 197.190 242.377,197.052 242.414,196.824 242.774 C 196.514 243.264,196.354 243.268,195.730 242.796 C 195.043 242.276,195.039 242.287,195.662 242.969 M220.981 244.900 L 219.400 246.600 221.100 245.019 C 222.681 243.548,222.984 243.200,222.681 243.200 C 222.616 243.200,221.851 243.965,220.981 244.900 M330.953 248.200 C 330.953 250.840,331.018 251.868,331.097 250.484 C 331.175 249.101,331.174 246.941,331.095 245.684 C 331.016 244.428,330.952 245.560,330.953 248.200 M124.800 246.600 C 125.546 247.370,126.247 248.000,126.357 248.000 C 126.467 248.000,125.946 247.370,125.200 246.600 C 124.454 245.830,123.753 245.200,123.643 245.200 C 123.533 245.200,124.054 245.830,124.800 246.600 M315.734 248.000 C 315.734 249.650,315.805 250.325,315.891 249.500 C 315.978 248.675,315.978 247.325,315.891 246.500 C 315.805 245.675,315.734 246.350,315.734 248.000 M86.493 248.000 C 86.493 248.770,86.575 249.085,86.676 248.700 C 86.776 248.315,86.776 247.685,86.676 247.300 C 86.575 246.915,86.493 247.230,86.493 248.000 M313.775 253.700 L 312.600 255.000 313.900 253.825 C 314.615 253.179,315.200 252.594,315.200 252.525 C 315.200 252.216,314.870 252.488,313.775 253.700 M118.033 254.549 C 118.445 254.917,120.800 256.000,120.800 255.821 C 120.800 255.590,118.582 254.400,118.153 254.400 C 117.996 254.400,117.942 254.467,118.033 254.549 M198.893 256.000 C 198.893 256.770,198.975 257.085,199.076 256.700 C 199.176 256.315,199.176 255.685,199.076 255.300 C 198.975 254.915,198.893 255.230,198.893 256.000 M273.348 260.000 C 273.348 262.310,273.414 263.255,273.495 262.100 C 273.576 260.945,273.576 259.055,273.495 257.900 C 273.414 256.745,273.348 257.690,273.348 260.000 M214.934 260.000 C 214.934 261.650,215.005 262.325,215.091 261.500 C 215.178 260.675,215.178 259.325,215.091 258.500 C 215.005 257.675,214.934 258.350,214.934 260.000 M91.400 259.200 C 92.259 260.080,93.052 260.800,93.162 260.800 C 93.272 260.800,92.659 260.080,91.800 259.200 C 90.941 258.320,90.148 257.600,90.038 257.600 C 89.928 257.600,90.541 258.320,91.400 259.200 M198.893 264.000 C 198.893 264.770,198.975 265.085,199.076 264.700 C 199.176 264.315,199.176 263.685,199.076 263.300 C 198.975 262.915,198.893 263.230,198.893 264.000 M85.467 267.867 C 84.766 268.567,85.181 295.887,85.900 296.451 C 86.524 296.940,86.544 296.929,86.090 296.347 C 85.693 295.839,85.604 292.561,85.690 281.647 C 85.750 273.921,85.785 267.600,85.767 267.600 C 85.748 267.600,85.613 267.720,85.467 267.867 M316.800 269.800 C 315.810 270.330,315.142 270.772,315.316 270.782 C 315.741 270.806,318.800 269.234,318.800 268.992 C 318.800 268.727,318.817 268.720,316.800 269.800 M31.400 271.200 C 32.483 272.300,33.460 273.200,33.570 273.200 C 33.680 273.200,32.883 272.300,31.800 271.200 C 30.717 270.100,29.740 269.200,29.630 269.200 C 29.520 269.200,30.317 270.100,31.400 271.200 M91.583 273.700 C 92.564 274.745,93.419 275.600,93.483 275.600 C 93.784 275.600,93.466 275.241,91.700 273.583 L 89.800 271.800 91.583 273.700 M364.191 275.300 L 361.000 278.600 364.300 275.409 C 367.365 272.446,367.782 272.000,367.491 272.000 C 367.430 272.000,365.945 273.485,364.191 275.300 M131.320 274.400 C 131.320 275.610,131.395 276.105,131.487 275.500 C 131.578 274.895,131.578 273.905,131.487 273.300 C 131.395 272.695,131.320 273.190,131.320 274.400 M21.183 275.300 C 22.164 276.345,23.019 277.200,23.083 277.200 C 23.384 277.200,23.066 276.841,21.300 275.183 L 19.400 273.400 21.183 275.300 M376.991 276.900 L 373.800 280.200 377.100 277.009 C 380.165 274.046,380.582 273.600,380.291 273.600 C 380.230 273.600,378.745 275.085,376.991 276.900 M220.000 274.125 C 220.000 274.194,220.585 274.779,221.300 275.425 L 222.600 276.600 221.425 275.300 C 220.330 274.088,220.000 273.816,220.000 274.125 M37.800 277.200 C 38.883 278.300,39.860 279.200,39.970 279.200 C 40.080 279.200,39.283 278.300,38.200 277.200 C 37.117 276.100,36.140 275.200,36.030 275.200 C 35.920 275.200,36.717 276.100,37.800 277.200 M296.163 284.400 C 296.163 288.030,296.223 289.515,296.298 287.700 C 296.372 285.885,296.372 282.915,296.298 281.100 C 296.223 279.285,296.163 280.770,296.163 284.400 M27.583 281.300 C 28.564 282.345,29.419 283.200,29.483 283.200 C 29.784 283.200,29.466 282.841,27.700 281.183 L 25.800 279.400 27.583 281.300 M44.200 283.200 C 45.283 284.300,46.260 285.200,46.370 285.200 C 46.480 285.200,45.683 284.300,44.600 283.200 C 43.517 282.100,42.540 281.200,42.430 281.200 C 42.320 281.200,43.117 282.100,44.200 283.200 M105.505 281.483 C 106.002 281.579,106.722 281.575,107.105 281.475 C 107.487 281.375,107.080 281.296,106.200 281.301 C 105.320 281.305,105.007 281.387,105.505 281.483 M235.305 281.487 C 235.914 281.579,236.814 281.577,237.305 281.482 C 237.797 281.387,237.300 281.311,236.200 281.314 C 235.100 281.317,234.697 281.395,235.305 281.487 M353.191 285.900 L 349.800 289.400 353.300 286.009 C 356.551 282.859,356.982 282.400,356.691 282.400 C 356.631 282.400,355.056 283.975,353.191 285.900 M263.978 284.700 L 262.600 286.200 264.100 284.822 C 265.496 283.538,265.784 283.200,265.478 283.200 C 265.412 283.200,264.737 283.875,263.978 284.700 M365.791 287.700 L 362.600 291.000 365.900 287.809 C 368.965 284.846,369.382 284.400,369.091 284.400 C 369.030 284.400,367.545 285.885,365.791 287.700 M33.800 287.200 C 34.883 288.300,35.860 289.200,35.970 289.200 C 36.080 289.200,35.283 288.300,34.200 287.200 C 33.117 286.100,32.140 285.200,32.030 285.200 C 31.920 285.200,32.717 286.100,33.800 287.200 M260.575 288.100 L 259.400 289.400 260.700 288.225 C 261.415 287.579,262.000 286.994,262.000 286.925 C 262.000 286.616,261.670 286.888,260.575 288.100 M50.600 289.200 C 51.683 290.300,52.660 291.200,52.770 291.200 C 52.880 291.200,52.083 290.300,51.000 289.200 C 49.917 288.100,48.940 287.200,48.830 287.200 C 48.720 287.200,49.517 288.100,50.600 289.200 M40.200 293.200 C 41.283 294.300,42.260 295.200,42.370 295.200 C 42.480 295.200,41.683 294.300,40.600 293.200 C 39.517 292.100,38.540 291.200,38.430 291.200 C 38.320 291.200,39.117 292.100,40.200 293.200 M252.400 293.600 C 251.630 294.022,251.144 294.374,251.320 294.383 C 251.744 294.405,254.000 293.232,254.000 292.990 C 254.000 292.728,253.977 292.737,252.400 293.600 M56.783 294.900 C 57.764 295.945,58.619 296.800,58.683 296.800 C 58.984 296.800,58.666 296.441,56.900 294.783 L 55.000 293.000 56.783 294.900 M341.991 296.700 L 338.600 300.200 342.100 296.809 C 345.351 293.659,345.782 293.200,345.491 293.200 C 345.431 293.200,343.856 294.775,341.991 296.700 M354.791 298.300 L 351.400 301.800 354.900 298.409 C 358.151 295.259,358.582 294.800,358.291 294.800 C 358.231 294.800,356.656 296.375,354.791 298.300 M46.600 299.200 C 47.683 300.300,48.660 301.200,48.770 301.200 C 48.880 301.200,48.083 300.300,47.000 299.200 C 45.917 298.100,44.940 297.200,44.830 297.200 C 44.720 297.200,45.517 298.100,46.600 299.200 M103.505 297.483 C 104.002 297.579,104.722 297.575,105.105 297.475 C 105.487 297.375,105.080 297.296,104.200 297.301 C 103.320 297.305,103.007 297.387,103.505 297.483 M108.500 297.476 C 108.885 297.576,109.515 297.576,109.900 297.476 C 110.285 297.375,109.970 297.293,109.200 297.293 C 108.430 297.293,108.115 297.375,108.500 297.476 M232.300 297.482 C 232.795 297.578,233.605 297.578,234.100 297.482 C 234.595 297.387,234.190 297.309,233.200 297.309 C 232.210 297.309,231.805 297.387,232.300 297.482 M238.300 297.482 C 238.795 297.578,239.605 297.578,240.100 297.482 C 240.595 297.387,240.190 297.309,239.200 297.309 C 238.210 297.309,237.805 297.387,238.300 297.482 M63.183 300.900 C 64.841 302.666,65.200 302.984,65.200 302.683 C 65.200 302.619,64.345 301.764,63.300 300.783 L 61.400 299.000 63.183 300.900 M53.000 305.200 C 54.083 306.300,55.060 307.200,55.170 307.200 C 55.280 307.200,54.483 306.300,53.400 305.200 C 52.317 304.100,51.340 303.200,51.230 303.200 C 51.120 303.200,51.917 304.100,53.000 305.200 M330.991 307.300 L 327.800 310.600 331.100 307.409 C 334.165 304.446,334.582 304.000,334.291 304.000 C 334.230 304.000,332.745 305.485,330.991 307.300 M69.583 306.900 C 70.564 307.945,71.419 308.800,71.483 308.800 C 71.784 308.800,71.466 308.441,69.700 306.783 L 67.800 305.000 69.583 306.900 M343.791 308.900 L 340.600 312.200 343.900 309.009 C 345.715 307.255,347.200 305.770,347.200 305.709 C 347.200 305.418,346.754 305.835,343.791 308.900 M59.400 311.200 C 60.483 312.300,61.460 313.200,61.570 313.200 C 61.680 313.200,60.883 312.300,59.800 311.200 C 58.717 310.100,57.740 309.200,57.630 309.200 C 57.520 309.200,58.317 310.100,59.400 311.200 M75.983 312.900 C 76.964 313.945,77.819 314.800,77.883 314.800 C 78.184 314.800,77.866 314.441,76.100 312.783 L 74.200 311.000 75.983 312.900 M319.991 317.900 L 316.600 321.400 320.100 318.009 C 323.351 314.859,323.782 314.400,323.491 314.400 C 323.431 314.400,321.856 315.975,319.991 317.900 M65.583 316.900 C 66.564 317.945,67.419 318.800,67.483 318.800 C 67.784 318.800,67.466 318.441,65.700 316.783 L 63.800 315.000 65.583 316.900 M332.591 319.700 L 329.400 323.000 332.700 319.809 C 334.515 318.055,336.000 316.570,336.000 316.509 C 336.000 316.218,335.554 316.635,332.591 319.700 M82.383 318.900 C 83.364 319.945,84.219 320.800,84.283 320.800 C 84.584 320.800,84.266 320.441,82.500 318.783 L 80.600 317.000 82.383 318.900 M71.983 322.900 C 72.964 323.945,73.819 324.800,73.883 324.800 C 74.184 324.800,73.866 324.441,72.100 322.783 L 70.200 321.000 71.983 322.900 M88.600 324.800 C 89.683 325.900,90.660 326.800,90.770 326.800 C 90.880 326.800,90.083 325.900,89.000 324.800 C 87.917 323.700,86.940 322.800,86.830 322.800 C 86.720 322.800,87.517 323.700,88.600 324.800 M308.991 328.500 L 305.800 331.800 309.100 328.609 C 310.915 326.855,312.400 325.370,312.400 325.309 C 312.400 325.018,311.954 325.435,308.991 328.500 M321.591 330.300 L 318.200 333.800 321.700 330.409 C 324.951 327.259,325.382 326.800,325.091 326.800 C 325.031 326.800,323.456 328.375,321.591 330.300 M78.383 328.900 C 79.364 329.945,80.219 330.800,80.283 330.800 C 80.584 330.800,80.266 330.441,78.500 328.783 L 76.600 327.000 78.383 328.900 M95.000 330.800 C 96.083 331.900,97.060 332.800,97.170 332.800 C 97.280 332.800,96.483 331.900,95.400 330.800 C 94.317 329.700,93.340 328.800,93.230 328.800 C 93.120 328.800,93.917 329.700,95.000 330.800 M84.600 334.800 C 85.683 335.900,86.660 336.800,86.770 336.800 C 86.880 336.800,86.083 335.900,85.000 334.800 C 83.917 333.700,82.940 332.800,82.830 332.800 C 82.720 332.800,83.517 333.700,84.600 334.800 M101.400 336.800 C 102.483 337.900,103.460 338.800,103.570 338.800 C 103.680 338.800,102.883 337.900,101.800 336.800 C 100.717 335.700,99.740 334.800,99.630 334.800 C 99.520 334.800,100.317 335.700,101.400 336.800 M297.791 339.300 L 294.600 342.600 297.900 339.409 C 300.965 336.446,301.382 336.000,301.091 336.000 C 301.030 336.000,299.545 337.485,297.791 339.300 M310.591 340.900 L 307.400 344.200 310.700 341.009 C 313.765 338.046,314.182 337.600,313.891 337.600 C 313.830 337.600,312.345 339.085,310.591 340.900 M91.183 340.900 C 92.841 342.666,93.200 342.984,93.200 342.683 C 93.200 342.619,92.345 341.764,91.300 340.783 L 89.400 339.000 91.183 340.900 M107.583 342.500 C 109.241 344.266,109.600 344.584,109.600 344.283 C 109.600 344.219,108.745 343.364,107.700 342.383 L 105.800 340.600 107.583 342.500 M97.400 346.800 C 98.483 347.900,99.460 348.800,99.570 348.800 C 99.680 348.800,98.883 347.900,97.800 346.800 C 96.717 345.700,95.740 344.800,95.630 344.800 C 95.520 344.800,96.317 345.700,97.400 346.800 M286.991 349.700 L 283.800 353.000 287.100 349.809 C 290.165 346.846,290.582 346.400,290.291 346.400 C 290.230 346.400,288.745 347.885,286.991 349.700 M113.983 348.500 C 115.641 350.266,116.000 350.584,116.000 350.283 C 116.000 350.219,115.145 349.364,114.100 348.383 L 112.200 346.600 113.983 348.500 M299.391 351.700 L 296.200 355.000 299.500 351.809 C 302.565 348.846,302.982 348.400,302.691 348.400 C 302.630 348.400,301.145 349.885,299.391 351.700 M103.800 352.800 C 104.883 353.900,105.860 354.800,105.970 354.800 C 106.080 354.800,105.283 353.900,104.200 352.800 C 103.117 351.700,102.140 350.800,102.030 350.800 C 101.920 350.800,102.717 351.700,103.800 352.800 M120.383 354.500 C 122.041 356.266,122.400 356.584,122.400 356.283 C 122.400 356.219,121.545 355.364,120.500 354.383 L 118.600 352.600 120.383 354.500 M110.200 358.800 C 111.283 359.900,112.260 360.800,112.370 360.800 C 112.480 360.800,111.683 359.900,110.600 358.800 C 109.517 357.700,108.540 356.800,108.430 356.800 C 108.320 356.800,109.117 357.700,110.200 358.800 M276.000 360.200 C 274.361 361.850,273.110 363.200,273.220 363.200 C 273.330 363.200,274.761 361.850,276.400 360.200 C 278.039 358.550,279.290 357.200,279.180 357.200 C 279.070 357.200,277.639 358.550,276.000 360.200 M126.783 360.500 C 128.441 362.266,128.800 362.584,128.800 362.283 C 128.800 362.219,127.945 361.364,126.900 360.383 L 125.000 358.600 126.783 360.500 M288.391 362.300 L 285.000 365.800 288.500 362.409 C 291.751 359.259,292.182 358.800,291.891 358.800 C 291.831 358.800,290.256 360.375,288.391 362.300 M116.383 364.500 C 118.041 366.266,118.400 366.584,118.400 366.283 C 118.400 366.219,117.545 365.364,116.500 364.383 L 114.600 362.600 116.383 364.500 M165.300 363.100 C 185.045 363.157,217.355 363.157,237.100 363.100 C 256.845 363.043,240.690 362.996,201.200 362.996 C 161.710 362.996,145.555 363.043,165.300 363.100 M122.783 370.500 C 124.441 372.266,124.800 372.584,124.800 372.283 C 124.800 372.219,123.945 371.364,122.900 370.383 L 121.000 368.600 122.783 370.500 M278.981 371.300 L 277.400 373.000 279.100 371.419 C 280.035 370.549,280.800 369.784,280.800 369.719 C 280.800 369.416,280.452 369.719,278.981 371.300 " stroke="none" fill="#e95e69" fill-rule="evenodd"></path><path id="path4" d="M105.804 113.196 L 104.658 114.392 85.629 114.500 L 66.600 114.608 85.622 114.704 L 104.643 114.800 106.000 113.400 C 106.746 112.630,107.265 112.000,107.153 112.000 C 107.041 112.000,106.434 112.538,105.804 113.196 M158.500 114.691 C 159.325 114.778,160.675 114.778,161.500 114.691 C 162.325 114.605,161.650 114.534,160.000 114.534 C 158.350 114.534,157.675 114.605,158.500 114.691 M237.911 114.693 C 238.851 114.778,240.291 114.777,241.111 114.691 C 241.930 114.605,241.160 114.536,239.400 114.537 C 237.640 114.539,236.970 114.609,237.911 114.693 M288.928 114.700 C 294.168 114.763,302.628 114.763,307.728 114.700 C 312.827 114.636,308.540 114.585,298.200 114.585 C 287.860 114.585,283.687 114.637,288.928 114.700 M108.786 117.500 L 106.600 119.800 108.900 117.614 C 110.165 116.411,111.200 115.376,111.200 115.314 C 111.200 115.017,110.818 115.363,108.786 117.500 M76.728 119.900 C 82.298 119.963,91.298 119.962,96.728 119.900 C 102.158 119.837,97.600 119.785,86.600 119.786 C 75.600 119.786,71.158 119.837,76.728 119.900 M158.100 119.894 C 159.145 119.976,160.855 119.976,161.900 119.894 C 162.945 119.812,162.090 119.744,160.000 119.744 C 157.910 119.744,157.055 119.812,158.100 119.894 M237.513 119.895 C 238.676 119.976,240.476 119.976,241.513 119.893 C 242.551 119.811,241.600 119.745,239.400 119.746 C 237.200 119.747,236.351 119.814,237.513 119.895 M288.900 119.900 C 294.125 119.963,302.675 119.963,307.900 119.900 C 313.125 119.836,308.850 119.785,298.400 119.785 C 287.950 119.785,283.675 119.836,288.900 119.900 M59.693 122.400 C 59.693 123.170,59.775 123.485,59.876 123.100 C 59.976 122.715,59.976 122.085,59.876 121.700 C 59.775 121.315,59.693 121.630,59.693 122.400 M341.400 125.600 C 342.259 126.480,343.052 127.200,343.162 127.200 C 343.272 127.200,342.659 126.480,341.800 125.600 C 340.941 124.720,340.148 124.000,340.038 124.000 C 339.928 124.000,340.541 124.720,341.400 125.600 M270.200 127.200 C 271.506 128.520,272.665 129.600,272.775 129.600 C 272.885 129.600,271.906 128.520,270.600 127.200 C 269.294 125.880,268.135 124.800,268.025 124.800 C 267.915 124.800,268.894 125.880,270.200 127.200 M207.387 128.100 L 205.000 130.600 207.500 128.213 C 208.875 126.899,210.000 125.774,210.000 125.713 C 210.000 125.417,209.605 125.778,207.387 128.100 M267.000 131.200 C 268.306 132.520,269.465 133.600,269.575 133.600 C 269.685 133.600,268.706 132.520,267.400 131.200 C 266.094 129.880,264.935 128.800,264.825 128.800 C 264.715 128.800,265.694 129.880,267.000 131.200 M210.987 131.700 L 208.600 134.200 211.100 131.813 C 212.475 130.499,213.600 129.374,213.600 129.313 C 213.600 129.017,213.205 129.378,210.987 131.700 M187.600 131.000 C 188.346 131.770,189.047 132.400,189.157 132.400 C 189.267 132.400,188.746 131.770,188.000 131.000 C 187.254 130.230,186.553 129.600,186.443 129.600 C 186.333 129.600,186.854 130.230,187.600 131.000 M68.590 159.400 C 68.590 175.680,68.639 182.282,68.700 174.070 C 68.760 165.859,68.760 152.539,68.700 144.470 C 68.639 136.402,68.590 143.120,68.590 159.400 M276.337 132.600 C 276.259 133.590,276.331 134.400,276.497 134.400 C 276.664 134.400,276.800 133.590,276.800 132.600 C 276.800 131.610,276.728 130.800,276.640 130.800 C 276.552 130.800,276.416 131.610,276.337 132.600 M348.678 135.795 C 349.044 136.562,349.414 137.119,349.501 137.032 C 349.684 136.849,348.470 134.400,348.196 134.400 C 348.095 134.400,348.312 135.028,348.678 135.795 M88.486 144.700 L 88.573 149.800 88.699 144.889 L 88.825 139.978 101.574 140.089 C 108.587 140.150,114.241 140.065,114.138 139.900 C 114.036 139.735,108.203 139.600,101.176 139.600 L 88.400 139.600 88.486 144.700 M302.496 159.700 L 302.592 179.000 302.700 159.909 L 302.808 140.819 309.704 140.699 L 316.600 140.580 309.500 140.490 L 302.400 140.400 302.496 159.700 M252.400 146.200 C 253.146 146.970,253.847 147.600,253.957 147.600 C 254.067 147.600,253.546 146.970,252.800 146.200 C 252.054 145.430,251.353 144.800,251.243 144.800 C 251.133 144.800,251.654 145.430,252.400 146.200 M307.382 145.702 C 307.276 145.979,307.239 152.414,307.300 160.002 L 307.411 173.800 307.505 159.713 L 307.600 145.626 312.100 145.499 L 316.600 145.371 312.087 145.286 C 308.770 145.223,307.524 145.333,307.382 145.702 M352.514 149.400 C 352.517 150.500,352.595 150.903,352.687 150.295 C 352.779 149.686,352.777 148.786,352.682 148.295 C 352.587 147.803,352.511 148.300,352.514 149.400 M248.800 149.400 C 249.546 150.170,250.247 150.800,250.357 150.800 C 250.467 150.800,249.946 150.170,249.200 149.400 C 248.454 148.630,247.753 148.000,247.643 148.000 C 247.533 148.000,248.054 148.630,248.800 149.400 M347.773 159.800 C 347.773 165.080,347.830 167.185,347.899 164.477 C 347.968 161.769,347.968 157.449,347.899 154.877 C 347.829 152.305,347.772 154.520,347.773 159.800 M321.770 159.400 C 321.771 164.240,321.829 166.165,321.899 163.678 C 321.969 161.191,321.969 157.231,321.898 154.878 C 321.828 152.525,321.770 154.560,321.770 159.400 M278.893 156.000 C 278.893 156.770,278.975 157.085,279.076 156.700 C 279.176 156.315,279.176 155.685,279.076 155.300 C 278.975 154.915,278.893 155.230,278.893 156.000 M173.728 159.600 C 173.728 161.030,173.801 161.615,173.889 160.900 C 173.978 160.185,173.978 159.015,173.889 158.300 C 173.801 157.585,173.728 158.170,173.728 159.600 M146.114 159.400 C 146.117 160.500,146.195 160.903,146.287 160.295 C 146.379 159.686,146.377 158.786,146.282 158.295 C 146.187 157.803,146.111 158.300,146.114 159.400 M220.520 159.600 C 220.520 160.810,220.595 161.305,220.687 160.700 C 220.778 160.095,220.778 159.105,220.687 158.500 C 220.595 157.895,220.520 158.390,220.520 159.600 M115.056 159.910 C 114.950 160.080,115.011 160.845,115.191 161.610 L 115.518 163.000 115.559 161.300 C 115.599 159.656,115.456 159.262,115.056 159.910 M278.893 163.200 C 278.893 163.970,278.975 164.285,279.076 163.900 C 279.176 163.515,279.176 162.885,279.076 162.500 C 278.975 162.115,278.893 162.430,278.893 163.200 M199.400 164.800 C 199.248 165.491,199.207 166.141,199.309 166.242 C 199.411 166.344,199.609 165.853,199.750 165.150 C 200.083 163.483,199.760 163.160,199.400 164.800 M169.775 169.300 L 168.600 170.600 169.900 169.425 C 171.112 168.330,171.384 168.000,171.075 168.000 C 171.006 168.000,170.421 168.585,169.775 169.300 M352.509 169.600 C 352.509 170.590,352.587 170.995,352.682 170.500 C 352.778 170.005,352.778 169.195,352.682 168.700 C 352.587 168.205,352.509 168.610,352.509 169.600 M88.573 179.400 C 88.573 184.900,88.630 187.205,88.699 184.523 C 88.768 181.841,88.768 177.341,88.699 174.523 C 88.630 171.705,88.574 173.900,88.573 179.400 M319.949 171.065 C 319.647 171.430,318.860 172.060,318.200 172.463 C 317.540 172.867,317.228 173.198,317.506 173.199 C 318.008 173.200,321.229 170.432,320.749 170.411 C 320.611 170.405,320.251 170.699,319.949 171.065 M173.178 173.100 L 171.800 174.600 173.300 173.222 C 174.125 172.463,174.800 171.788,174.800 171.722 C 174.800 171.416,174.462 171.704,173.178 173.100 M158.700 173.489 C 159.415 173.578,160.585 173.578,161.300 173.489 C 162.015 173.401,161.430 173.328,160.000 173.328 C 158.570 173.328,157.985 173.401,158.700 173.489 M238.307 173.490 C 239.026 173.579,240.106 173.577,240.707 173.486 C 241.308 173.395,240.720 173.322,239.400 173.324 C 238.080 173.326,237.588 173.401,238.307 173.490 M323.178 175.100 L 321.800 176.600 323.300 175.222 C 324.696 173.938,324.984 173.600,324.678 173.600 C 324.612 173.600,323.937 174.275,323.178 175.100 M93.364 181.000 C 93.363 184.740,93.423 186.324,93.497 184.520 C 93.571 182.715,93.572 179.655,93.498 177.720 C 93.425 175.784,93.364 177.260,93.364 181.000 M96.383 176.100 C 97.364 177.145,98.219 178.000,98.283 178.000 C 98.584 178.000,98.266 177.641,96.500 175.983 L 94.600 174.200 96.383 176.100 M158.900 178.687 C 159.505 178.778,160.495 178.778,161.100 178.687 C 161.705 178.595,161.210 178.520,160.000 178.520 C 158.790 178.520,158.295 178.595,158.900 178.687 M238.505 178.687 C 239.114 178.779,240.014 178.777,240.505 178.682 C 240.997 178.587,240.500 178.511,239.400 178.514 C 238.300 178.517,237.897 178.595,238.505 178.687 M102.300 179.482 C 102.795 179.578,103.605 179.578,104.100 179.482 C 104.595 179.387,104.190 179.309,103.200 179.309 C 102.210 179.309,101.805 179.387,102.300 179.482 M276.000 185.011 C 275.563 185.552,275.548 185.665,275.944 185.426 C 276.379 185.164,276.459 185.466,276.343 186.930 C 276.263 187.938,276.344 188.616,276.523 188.437 C 276.702 188.258,276.793 187.247,276.724 186.190 C 276.609 184.411,276.555 184.323,276.000 185.011 M208.800 185.325 C 208.800 185.394,209.385 185.979,210.100 186.625 L 211.400 187.800 210.225 186.500 C 209.130 185.288,208.800 185.016,208.800 185.325 M267.188 187.900 L 264.600 190.600 267.300 188.012 C 268.785 186.588,270.000 185.373,270.000 185.312 C 270.000 185.017,269.593 185.392,267.188 187.900 M188.000 187.800 C 187.028 188.790,186.323 189.600,186.433 189.600 C 186.543 189.600,187.428 188.790,188.400 187.800 C 189.372 186.810,190.077 186.000,189.967 186.000 C 189.857 186.000,188.972 186.810,188.000 187.800 M270.800 191.000 C 269.161 192.650,267.910 194.000,268.020 194.000 C 268.130 194.000,269.561 192.650,271.200 191.000 C 272.839 189.350,274.090 188.000,273.980 188.000 C 273.870 188.000,272.439 189.350,270.800 191.000 M205.200 188.510 C 205.200 188.571,206.595 189.966,208.300 191.610 L 211.400 194.600 208.410 191.500 C 205.633 188.621,205.200 188.217,205.200 188.510 M337.978 189.900 L 336.600 191.400 338.100 190.022 C 339.496 188.738,339.784 188.400,339.478 188.400 C 339.412 188.400,338.737 189.075,337.978 189.900 M212.400 188.925 C 212.400 188.994,212.985 189.579,213.700 190.225 L 215.000 191.400 213.825 190.100 C 212.730 188.888,212.400 188.616,212.400 188.925 M191.381 191.300 L 189.800 193.000 191.500 191.419 C 193.081 189.948,193.384 189.600,193.081 189.600 C 193.016 189.600,192.251 190.365,191.381 191.300 M341.385 193.300 L 339.400 195.400 341.500 193.415 C 343.451 191.571,343.783 191.200,343.485 191.200 C 343.422 191.200,342.477 192.145,341.385 193.300 M155.300 199.476 C 155.685 199.576,156.315 199.576,156.700 199.476 C 157.085 199.375,156.770 199.293,156.000 199.293 C 155.230 199.293,154.915 199.375,155.300 199.476 M94.575 202.100 L 93.400 203.400 94.700 202.225 C 95.415 201.579,96.000 200.994,96.000 200.925 C 96.000 200.616,95.670 200.888,94.575 202.100 M274.000 200.925 C 274.000 200.994,274.585 201.579,275.300 202.225 L 276.600 203.400 275.425 202.100 C 274.330 200.888,274.000 200.616,274.000 200.925 M155.905 204.283 C 156.402 204.379,157.122 204.375,157.505 204.275 C 157.887 204.175,157.480 204.096,156.600 204.101 C 155.720 204.105,155.407 204.187,155.905 204.283 M162.700 204.282 C 163.195 204.378,164.005 204.378,164.500 204.282 C 164.995 204.187,164.590 204.109,163.600 204.109 C 162.610 204.109,162.205 204.187,162.700 204.282 M234.700 204.282 C 235.195 204.378,236.005 204.378,236.500 204.282 C 236.995 204.187,236.590 204.109,235.600 204.109 C 234.610 204.109,234.205 204.187,234.700 204.282 M242.300 204.282 C 242.795 204.378,243.605 204.378,244.100 204.282 C 244.595 204.187,244.190 204.109,243.200 204.109 C 242.210 204.109,241.805 204.187,242.300 204.282 M316.700 204.282 C 317.195 204.378,318.005 204.378,318.500 204.282 C 318.995 204.187,318.590 204.109,317.600 204.109 C 316.610 204.109,316.205 204.187,316.700 204.282 M187.900 210.682 C 188.395 210.778,189.205 210.778,189.700 210.682 C 190.195 210.587,189.790 210.509,188.800 210.509 C 187.810 210.509,187.405 210.587,187.900 210.682 M140.700 211.082 C 141.195 211.178,142.005 211.178,142.500 211.082 C 142.995 210.987,142.590 210.909,141.600 210.909 C 140.610 210.909,140.205 210.987,140.700 211.082 M147.578 213.700 L 148.957 215.200 164.978 215.105 L 181.000 215.009 165.014 214.900 L 149.028 214.791 147.614 213.495 L 146.200 212.200 147.578 213.700 M134.604 213.996 C 133.974 214.654,133.535 215.256,133.629 215.334 C 133.723 215.412,134.313 214.874,134.939 214.138 C 136.354 212.477,136.145 212.388,134.604 213.996 M233.700 215.096 C 234.965 215.175,237.035 215.175,238.300 215.096 C 239.565 215.016,238.530 214.951,236.000 214.951 C 233.470 214.951,232.435 215.016,233.700 215.096 M284.100 215.100 C 288.885 215.163,296.715 215.163,301.500 215.100 C 306.285 215.036,302.370 214.984,292.800 214.984 C 283.230 214.984,279.315 215.036,284.100 215.100 M126.905 215.887 C 127.514 215.979,128.414 215.977,128.905 215.882 C 129.397 215.787,128.900 215.711,127.800 215.714 C 126.700 215.717,126.297 215.795,126.905 215.887 M319.233 217.751 C 319.642 218.121,322.800 219.595,322.800 219.416 C 322.800 219.189,319.781 217.600,319.349 217.600 C 319.194 217.600,319.142 217.668,319.233 217.751 M256.400 219.779 C 256.400 219.889,256.940 220.259,257.600 220.600 C 258.260 220.941,258.800 221.131,258.800 221.021 C 258.800 220.911,258.260 220.541,257.600 220.200 C 256.940 219.859,256.400 219.669,256.400 219.779 M110.300 220.282 C 110.795 220.378,111.605 220.378,112.100 220.282 C 112.595 220.187,112.190 220.109,111.200 220.109 C 110.210 220.109,109.805 220.187,110.300 220.282 M232.305 220.283 C 232.802 220.379,233.522 220.375,233.905 220.275 C 234.287 220.175,233.880 220.096,233.000 220.101 C 232.120 220.105,231.807 220.187,232.305 220.283 M238.305 220.283 C 238.802 220.379,239.522 220.375,239.905 220.275 C 240.287 220.175,239.880 220.096,239.000 220.101 C 238.120 220.105,237.807 220.187,238.305 220.283 M307.700 220.276 C 308.085 220.376,308.715 220.376,309.100 220.276 C 309.485 220.175,309.170 220.093,308.400 220.093 C 307.630 220.093,307.315 220.175,307.700 220.276 M329.200 224.600 C 330.395 225.810,331.463 226.800,331.573 226.800 C 331.683 226.800,330.795 225.810,329.600 224.600 C 328.405 223.390,327.337 222.400,327.227 222.400 C 327.117 222.400,328.005 223.390,329.200 224.600 M87.381 224.500 L 85.800 226.200 87.500 224.619 C 89.081 223.148,89.384 222.800,89.081 222.800 C 89.016 222.800,88.251 223.565,87.381 224.500 M264.400 224.910 C 264.400 224.971,265.795 226.366,267.500 228.010 L 270.600 231.000 267.610 227.900 C 264.833 225.021,264.400 224.617,264.400 224.910 M90.985 228.100 L 89.000 230.200 91.100 228.215 C 92.255 227.123,93.200 226.178,93.200 226.115 C 93.200 225.817,92.829 226.149,90.985 228.100 M325.800 228.400 C 326.659 229.280,327.452 230.000,327.562 230.000 C 327.672 230.000,327.059 229.280,326.200 228.400 C 325.341 227.520,324.548 226.800,324.438 226.800 C 324.328 226.800,324.941 227.520,325.800 228.400 M263.600 231.400 C 265.017 232.830,266.267 234.000,266.377 234.000 C 266.487 234.000,265.417 232.830,264.000 231.400 C 262.583 229.970,261.333 228.800,261.223 228.800 C 261.113 228.800,262.183 229.970,263.600 231.400 M201.984 230.619 C 201.574 231.113,201.404 231.133,201.141 230.719 C 200.910 230.354,200.810 230.341,200.806 230.676 C 200.795 231.539,201.481 231.595,202.209 230.791 C 202.602 230.356,202.828 230.000,202.711 230.000 C 202.594 230.000,202.267 230.279,201.984 230.619 M273.137 233.000 C 273.059 233.990,273.131 234.800,273.297 234.800 C 273.464 234.800,273.600 233.990,273.600 233.000 C 273.600 232.010,273.528 231.200,273.440 231.200 C 273.352 231.200,273.216 232.010,273.137 233.000 M140.162 240.900 C 139.403 241.797,139.403 241.798,140.221 241.110 C 140.916 240.525,142.111 240.401,148.021 240.300 L 155.000 240.180 147.962 240.090 C 141.102 240.002,140.905 240.023,140.162 240.900 M174.897 265.100 L 174.994 290.200 175.100 265.300 L 175.206 240.400 182.077 240.400 C 188.632 240.400,188.996 240.441,189.974 241.300 L 191.000 242.200 190.030 241.100 L 189.061 240.000 181.930 240.000 L 174.800 240.000 174.897 265.100 M298.400 249.200 C 298.400 254.260,298.535 258.400,298.700 258.400 C 298.865 258.401,298.948 254.356,298.885 249.414 L 298.771 240.426 303.285 240.299 L 307.800 240.171 303.100 240.086 L 298.400 240.000 298.400 249.200 M310.400 241.325 C 310.400 241.394,310.985 241.979,311.700 242.625 L 313.000 243.800 311.825 242.500 C 310.730 241.288,310.400 241.016,310.400 241.325 M338.093 242.400 C 338.093 243.170,338.175 243.485,338.276 243.100 C 338.376 242.715,338.376 242.085,338.276 241.700 C 338.175 241.315,338.093 241.630,338.093 242.400 M333.355 248.200 C 333.356 251.060,333.420 252.178,333.497 250.683 C 333.574 249.189,333.574 246.849,333.496 245.483 C 333.418 244.118,333.355 245.340,333.355 248.200 M149.600 266.880 C 149.490 279.134,149.537 289.024,149.703 288.857 C 149.870 288.690,149.960 278.664,149.903 266.577 L 149.800 244.600 149.600 266.880 M181.911 245.093 C 182.851 245.178,184.291 245.177,185.111 245.091 C 185.930 245.005,185.160 244.936,183.400 244.937 C 181.640 244.939,180.970 245.009,181.911 245.093 M303.367 245.342 C 303.252 245.640,303.223 247.035,303.302 248.442 L 303.446 251.000 303.523 248.122 L 303.600 245.244 305.500 245.094 L 307.400 244.944 305.487 244.872 C 304.193 244.823,303.508 244.975,303.367 245.342 M249.200 246.600 C 249.946 247.370,250.647 248.000,250.757 248.000 C 250.867 248.000,250.346 247.370,249.600 246.600 C 248.854 245.830,248.153 245.200,248.043 245.200 C 247.933 245.200,248.454 245.830,249.200 246.600 M307.800 247.200 C 307.800 248.258,307.935 249.040,308.100 248.938 C 308.265 248.836,308.400 248.054,308.400 247.200 C 308.400 246.346,308.265 245.564,308.100 245.462 C 307.935 245.360,307.800 246.142,307.800 247.200 M139.775 247.700 L 138.600 249.000 139.900 247.825 C 141.112 246.730,141.384 246.400,141.075 246.400 C 141.006 246.400,140.421 246.985,139.775 247.700 M245.600 249.800 C 246.346 250.570,247.047 251.200,247.157 251.200 C 247.267 251.200,246.746 250.570,246.000 249.800 C 245.254 249.030,244.553 248.400,244.443 248.400 C 244.333 248.400,244.854 249.030,245.600 249.800 M338.093 253.600 C 338.093 254.370,338.175 254.685,338.276 254.300 C 338.376 253.915,338.376 253.285,338.276 252.900 C 338.175 252.515,338.093 252.830,338.093 253.600 M275.709 257.200 C 275.709 258.190,275.787 258.595,275.882 258.100 C 275.978 257.605,275.978 256.795,275.882 256.300 C 275.787 255.805,275.709 256.210,275.709 257.200 M127.183 257.700 C 128.841 259.466,129.200 259.784,129.200 259.483 C 129.200 259.419,128.345 258.564,127.300 257.583 L 125.400 255.800 127.183 257.700 M191.342 259.800 C 191.341 261.780,191.408 262.640,191.492 261.712 C 191.576 260.784,191.577 259.164,191.495 258.112 C 191.412 257.060,191.343 257.820,191.342 259.800 M249.731 259.800 C 249.733 261.340,249.805 261.921,249.892 261.091 C 249.979 260.261,249.977 259.001,249.889 258.291 C 249.800 257.581,249.729 258.260,249.731 259.800 M217.328 260.000 C 217.328 261.430,217.401 262.015,217.489 261.300 C 217.578 260.585,217.578 259.415,217.489 258.700 C 217.401 257.985,217.328 258.570,217.328 260.000 M275.709 262.400 C 275.709 263.390,275.787 263.795,275.882 263.300 C 275.978 262.805,275.978 261.995,275.882 261.500 C 275.787 261.005,275.709 261.410,275.709 262.400 M326.585 266.100 L 324.600 268.200 326.700 266.215 C 328.651 264.371,328.983 264.000,328.685 264.000 C 328.622 264.000,327.677 264.945,326.585 266.100 M78.182 281.800 C 78.182 290.380,78.235 293.833,78.300 289.474 C 78.364 285.114,78.364 278.094,78.299 273.874 C 78.235 269.653,78.182 273.220,78.182 281.800 M329.988 269.500 L 327.400 272.200 330.100 269.612 C 331.585 268.188,332.800 266.973,332.800 266.912 C 332.800 266.617,332.393 266.992,329.988 269.500 M82.981 282.000 C 82.981 290.030,83.034 293.315,83.099 289.300 C 83.165 285.285,83.165 278.715,83.099 274.700 C 83.034 270.685,82.981 273.970,82.981 282.000 M226.200 269.600 C 227.059 270.480,227.852 271.200,227.962 271.200 C 228.072 271.200,227.459 270.480,226.600 269.600 C 225.741 268.720,224.948 268.000,224.838 268.000 C 224.728 268.000,225.341 268.720,226.200 269.600 M245.775 269.700 L 244.600 271.000 245.900 269.825 C 246.615 269.179,247.200 268.594,247.200 268.525 C 247.200 268.216,246.870 268.488,245.775 269.700 M91.600 270.200 C 92.346 270.970,93.047 271.600,93.157 271.600 C 93.267 271.600,92.746 270.970,92.000 270.200 C 91.254 269.430,90.553 268.800,90.443 268.800 C 90.333 268.800,90.854 269.430,91.600 270.200 M138.509 272.000 C 138.509 272.990,138.587 273.395,138.682 272.900 C 138.778 272.405,138.778 271.595,138.682 271.100 C 138.587 270.605,138.509 271.010,138.509 272.000 M111.634 272.647 C 112.165 273.333,112.680 273.823,112.779 273.735 C 112.877 273.647,112.443 273.086,111.813 272.488 L 110.669 271.400 111.634 272.647 M133.724 274.200 C 133.726 275.520,133.801 276.012,133.890 275.293 C 133.979 274.574,133.977 273.494,133.886 272.893 C 133.795 272.292,133.722 272.880,133.724 274.200 M249.178 273.500 L 247.800 275.000 249.300 273.622 C 250.696 272.338,250.984 272.000,250.678 272.000 C 250.612 272.000,249.937 272.675,249.178 273.500 M235.305 273.887 C 235.914 273.979,236.814 273.977,237.305 273.882 C 237.797 273.787,237.300 273.711,236.200 273.714 C 235.100 273.717,234.697 273.795,235.305 273.887 M138.501 276.600 C 138.505 277.480,138.587 277.793,138.683 277.295 C 138.779 276.798,138.775 276.078,138.675 275.695 C 138.575 275.313,138.496 275.720,138.501 276.600 M195.200 278.149 C 195.200 278.581,196.789 281.600,197.016 281.600 C 197.126 281.600,196.830 280.835,196.359 279.900 C 195.432 278.061,195.200 277.711,195.200 278.149 M235.300 279.076 C 235.685 279.176,236.315 279.176,236.700 279.076 C 237.085 278.975,236.770 278.893,236.000 278.893 C 235.230 278.893,234.915 278.975,235.300 279.076 M298.557 284.800 C 298.557 287.770,298.620 288.985,298.697 287.500 C 298.774 286.015,298.774 283.585,298.697 282.100 C 298.620 280.615,298.557 281.830,298.557 284.800 M303.467 283.067 C 303.099 283.434,303.129 288.309,303.500 288.538 C 303.665 288.640,303.800 287.391,303.800 285.762 C 303.800 284.133,303.785 282.800,303.767 282.800 C 303.748 282.800,303.613 282.920,303.467 283.067 M273.109 286.300 C 273.339 288.622,273.534 288.791,273.568 286.700 C 273.586 285.655,273.456 284.800,273.280 284.800 C 273.104 284.800,273.028 285.475,273.109 286.300 M206.800 287.000 C 207.546 287.770,208.247 288.400,208.357 288.400 C 208.467 288.400,207.946 287.770,207.200 287.000 C 206.454 286.230,205.753 285.600,205.643 285.600 C 205.533 285.600,206.054 286.230,206.800 287.000 M264.000 288.200 C 263.028 289.190,262.323 290.000,262.433 290.000 C 262.543 290.000,263.428 289.190,264.400 288.200 C 265.372 287.210,266.077 286.400,265.967 286.400 C 265.857 286.400,264.972 287.210,264.000 288.200 M203.000 290.000 C 203.859 290.880,204.652 291.600,204.762 291.600 C 204.872 291.600,204.259 290.880,203.400 290.000 C 202.541 289.120,201.748 288.400,201.638 288.400 C 201.528 288.400,202.141 289.120,203.000 290.000 M208.800 288.925 C 208.800 288.994,209.385 289.579,210.100 290.225 L 211.400 291.400 210.225 290.100 C 209.130 288.888,208.800 288.616,208.800 288.925 M267.588 291.500 L 265.000 294.200 267.700 291.612 C 269.185 290.188,270.400 288.973,270.400 288.912 C 270.400 288.617,269.993 288.992,267.588 291.500 M126.400 291.800 C 125.428 292.790,124.723 293.600,124.833 293.600 C 124.943 293.600,125.828 292.790,126.800 291.800 C 127.772 290.810,128.477 290.000,128.367 290.000 C 128.257 290.000,127.372 290.810,126.400 291.800 M206.600 293.600 C 207.459 294.480,208.252 295.200,208.362 295.200 C 208.472 295.200,207.859 294.480,207.000 293.600 C 206.141 292.720,205.348 292.000,205.238 292.000 C 205.128 292.000,205.741 292.720,206.600 293.600 M129.586 295.500 L 127.400 297.800 129.700 295.614 C 131.837 293.582,132.183 293.200,131.886 293.200 C 131.824 293.200,130.789 294.235,129.586 295.500 M307.320 296.400 C 307.320 297.610,307.395 298.105,307.487 297.500 C 307.578 296.895,307.578 295.905,307.487 295.300 C 307.395 294.695,307.320 295.190,307.320 296.400 M108.900 299.876 C 109.285 299.976,109.915 299.976,110.300 299.876 C 110.685 299.775,110.370 299.693,109.600 299.693 C 108.830 299.693,108.515 299.775,108.900 299.876 M232.100 299.876 C 232.485 299.976,233.115 299.976,233.500 299.876 C 233.885 299.775,233.570 299.693,232.800 299.693 C 232.030 299.693,231.715 299.775,232.100 299.876 M238.900 299.876 C 239.285 299.976,239.915 299.976,240.300 299.876 C 240.685 299.775,240.370 299.693,239.600 299.693 C 238.830 299.693,238.515 299.775,238.900 299.876 M181.375 302.500 L 180.200 303.800 181.500 302.625 C 182.712 301.530,182.984 301.200,182.675 301.200 C 182.606 301.200,182.021 301.785,181.375 302.500 M271.398 302.337 C 271.834 302.852,272.553 303.459,272.996 303.686 C 273.845 304.121,273.721 303.987,271.803 302.394 C 270.648 301.435,270.634 301.433,271.398 302.337 M104.700 304.695 C 105.855 304.776,107.745 304.776,108.900 304.695 C 110.055 304.614,109.110 304.548,106.800 304.548 C 104.490 304.548,103.545 304.614,104.700 304.695 M232.105 304.687 C 232.714 304.779,233.614 304.777,234.105 304.682 C 234.597 304.587,234.100 304.511,233.000 304.514 C 231.900 304.517,231.497 304.595,232.105 304.687 M238.100 304.687 C 238.705 304.778,239.695 304.778,240.300 304.687 C 240.905 304.595,240.410 304.520,239.200 304.520 C 237.990 304.520,237.495 304.595,238.100 304.687 " stroke="none" fill="#881b22" fill-rule="evenodd"></path></g></svg>